<?xml version="1.0" encoding="utf-8" standalone="no"?>
<!DOCTYPE svg PUBLIC "-//W3C//DTD SVG 1.1//EN"
  "http://www.w3.org/Graphics/SVG/1.1/DTD/svg11.dtd">
<svg height="703.44pt" version="1.1" viewBox="0 0 1382.4 703.44" width="1382.4pt" xmlns="http://www.w3.org/2000/svg" xmlns:xlink="http://www.w3.org/1999/xlink">
 <metadata>
  <rdf:RDF xmlns:cc="http://creativecommons.org/ns#" xmlns:dc="http://purl.org/dc/elements/1.1/" xmlns:rdf="http://www.w3.org/1999/02/22-rdf-syntax-ns#">
   <cc:Work>
    <dc:type rdf:resource="http://purl.org/dc/dcmitype/StillImage"/>
    <dc:date>2021-10-05T22:32:27.741495</dc:date>
    <dc:format>image/svg+xml</dc:format>
    <dc:creator>
     <cc:Agent>
      <dc:title>Matplotlib v3.4.3, https://matplotlib.org/</dc:title>
     </cc:Agent>
    </dc:creator>
   </cc:Work>
  </rdf:RDF>
 </metadata>
 <defs>
  <style type="text/css">*{stroke-linecap:butt;stroke-linejoin:round;}</style>
 </defs>
 <g id="figure_1">
  <g id="patch_1">
   <path d="M 0 703.44 
L 1382.4 703.44 
L 1382.4 0 
L 0 0 
z
" style="fill:#ffffff;"/>
  </g>
  <g id="axes_1">
   <g id="patch_2">
    <path d="M 172.8 626.0616 
L 1244.16 626.0616 
L 1244.16 84.4128 
L 172.8 84.4128 
z
" style="fill:#ffffff;"/>
   </g>
   <g id="matplotlib.axis_1">
    <g id="xtick_1">
     <g id="line2d_1">
      <defs>
       <path d="M 0 0 
L 0 3.5 
" id="mcf50271e01" style="stroke:#000000;stroke-width:0.8;"/>
      </defs>
      <g>
       <use style="stroke:#000000;stroke-width:0.8;" x="221.498182" xlink:href="#mcf50271e01" y="626.0616"/>
      </g>
     </g>
     <g id="text_1">
      <!-- 0 -->
      <g transform="translate(215.135682 648.258475)scale(0.2 -0.2)">
       <defs>
        <path d="M 2034 4250 
Q 1547 4250 1301 3770 
Q 1056 3291 1056 2328 
Q 1056 1369 1301 889 
Q 1547 409 2034 409 
Q 2525 409 2770 889 
Q 3016 1369 3016 2328 
Q 3016 3291 2770 3770 
Q 2525 4250 2034 4250 
z
M 2034 4750 
Q 2819 4750 3233 4129 
Q 3647 3509 3647 2328 
Q 3647 1150 3233 529 
Q 2819 -91 2034 -91 
Q 1250 -91 836 529 
Q 422 1150 422 2328 
Q 422 3509 836 4129 
Q 1250 4750 2034 4750 
z
" id="DejaVuSans-30" transform="scale(0.015625)"/>
       </defs>
       <use xlink:href="#DejaVuSans-30"/>
      </g>
     </g>
    </g>
    <g id="xtick_2">
     <g id="line2d_2">
      <g>
       <use style="stroke:#000000;stroke-width:0.8;" x="366.865889" xlink:href="#mcf50271e01" y="626.0616"/>
      </g>
     </g>
     <g id="text_2">
      <!-- 20 -->
      <g transform="translate(354.140889 648.258475)scale(0.2 -0.2)">
       <defs>
        <path d="M 1228 531 
L 3431 531 
L 3431 0 
L 469 0 
L 469 531 
Q 828 903 1448 1529 
Q 2069 2156 2228 2338 
Q 2531 2678 2651 2914 
Q 2772 3150 2772 3378 
Q 2772 3750 2511 3984 
Q 2250 4219 1831 4219 
Q 1534 4219 1204 4116 
Q 875 4013 500 3803 
L 500 4441 
Q 881 4594 1212 4672 
Q 1544 4750 1819 4750 
Q 2544 4750 2975 4387 
Q 3406 4025 3406 3419 
Q 3406 3131 3298 2873 
Q 3191 2616 2906 2266 
Q 2828 2175 2409 1742 
Q 1991 1309 1228 531 
z
" id="DejaVuSans-32" transform="scale(0.015625)"/>
       </defs>
       <use xlink:href="#DejaVuSans-32"/>
       <use x="63.623047" xlink:href="#DejaVuSans-30"/>
      </g>
     </g>
    </g>
    <g id="xtick_3">
     <g id="line2d_3">
      <g>
       <use style="stroke:#000000;stroke-width:0.8;" x="512.233596" xlink:href="#mcf50271e01" y="626.0616"/>
      </g>
     </g>
     <g id="text_3">
      <!-- 40 -->
      <g transform="translate(499.508596 648.258475)scale(0.2 -0.2)">
       <defs>
        <path d="M 2419 4116 
L 825 1625 
L 2419 1625 
L 2419 4116 
z
M 2253 4666 
L 3047 4666 
L 3047 1625 
L 3713 1625 
L 3713 1100 
L 3047 1100 
L 3047 0 
L 2419 0 
L 2419 1100 
L 313 1100 
L 313 1709 
L 2253 4666 
z
" id="DejaVuSans-34" transform="scale(0.015625)"/>
       </defs>
       <use xlink:href="#DejaVuSans-34"/>
       <use x="63.623047" xlink:href="#DejaVuSans-30"/>
      </g>
     </g>
    </g>
    <g id="xtick_4">
     <g id="line2d_4">
      <g>
       <use style="stroke:#000000;stroke-width:0.8;" x="657.601303" xlink:href="#mcf50271e01" y="626.0616"/>
      </g>
     </g>
     <g id="text_4">
      <!-- 60 -->
      <g transform="translate(644.876303 648.258475)scale(0.2 -0.2)">
       <defs>
        <path d="M 2113 2584 
Q 1688 2584 1439 2293 
Q 1191 2003 1191 1497 
Q 1191 994 1439 701 
Q 1688 409 2113 409 
Q 2538 409 2786 701 
Q 3034 994 3034 1497 
Q 3034 2003 2786 2293 
Q 2538 2584 2113 2584 
z
M 3366 4563 
L 3366 3988 
Q 3128 4100 2886 4159 
Q 2644 4219 2406 4219 
Q 1781 4219 1451 3797 
Q 1122 3375 1075 2522 
Q 1259 2794 1537 2939 
Q 1816 3084 2150 3084 
Q 2853 3084 3261 2657 
Q 3669 2231 3669 1497 
Q 3669 778 3244 343 
Q 2819 -91 2113 -91 
Q 1303 -91 875 529 
Q 447 1150 447 2328 
Q 447 3434 972 4092 
Q 1497 4750 2381 4750 
Q 2619 4750 2861 4703 
Q 3103 4656 3366 4563 
z
" id="DejaVuSans-36" transform="scale(0.015625)"/>
       </defs>
       <use xlink:href="#DejaVuSans-36"/>
       <use x="63.623047" xlink:href="#DejaVuSans-30"/>
      </g>
     </g>
    </g>
    <g id="xtick_5">
     <g id="line2d_5">
      <g>
       <use style="stroke:#000000;stroke-width:0.8;" x="802.969009" xlink:href="#mcf50271e01" y="626.0616"/>
      </g>
     </g>
     <g id="text_5">
      <!-- 80 -->
      <g transform="translate(790.244009 648.258475)scale(0.2 -0.2)">
       <defs>
        <path d="M 2034 2216 
Q 1584 2216 1326 1975 
Q 1069 1734 1069 1313 
Q 1069 891 1326 650 
Q 1584 409 2034 409 
Q 2484 409 2743 651 
Q 3003 894 3003 1313 
Q 3003 1734 2745 1975 
Q 2488 2216 2034 2216 
z
M 1403 2484 
Q 997 2584 770 2862 
Q 544 3141 544 3541 
Q 544 4100 942 4425 
Q 1341 4750 2034 4750 
Q 2731 4750 3128 4425 
Q 3525 4100 3525 3541 
Q 3525 3141 3298 2862 
Q 3072 2584 2669 2484 
Q 3125 2378 3379 2068 
Q 3634 1759 3634 1313 
Q 3634 634 3220 271 
Q 2806 -91 2034 -91 
Q 1263 -91 848 271 
Q 434 634 434 1313 
Q 434 1759 690 2068 
Q 947 2378 1403 2484 
z
M 1172 3481 
Q 1172 3119 1398 2916 
Q 1625 2713 2034 2713 
Q 2441 2713 2670 2916 
Q 2900 3119 2900 3481 
Q 2900 3844 2670 4047 
Q 2441 4250 2034 4250 
Q 1625 4250 1398 4047 
Q 1172 3844 1172 3481 
z
" id="DejaVuSans-38" transform="scale(0.015625)"/>
       </defs>
       <use xlink:href="#DejaVuSans-38"/>
       <use x="63.623047" xlink:href="#DejaVuSans-30"/>
      </g>
     </g>
    </g>
    <g id="xtick_6">
     <g id="line2d_6">
      <g>
       <use style="stroke:#000000;stroke-width:0.8;" x="948.336716" xlink:href="#mcf50271e01" y="626.0616"/>
      </g>
     </g>
     <g id="text_6">
      <!-- 100 -->
      <g transform="translate(929.249216 648.258475)scale(0.2 -0.2)">
       <defs>
        <path d="M 794 531 
L 1825 531 
L 1825 4091 
L 703 3866 
L 703 4441 
L 1819 4666 
L 2450 4666 
L 2450 531 
L 3481 531 
L 3481 0 
L 794 0 
L 794 531 
z
" id="DejaVuSans-31" transform="scale(0.015625)"/>
       </defs>
       <use xlink:href="#DejaVuSans-31"/>
       <use x="63.623047" xlink:href="#DejaVuSans-30"/>
       <use x="127.246094" xlink:href="#DejaVuSans-30"/>
      </g>
     </g>
    </g>
    <g id="xtick_7">
     <g id="line2d_7">
      <g>
       <use style="stroke:#000000;stroke-width:0.8;" x="1093.704423" xlink:href="#mcf50271e01" y="626.0616"/>
      </g>
     </g>
     <g id="text_7">
      <!-- 120 -->
      <g transform="translate(1074.616923 648.258475)scale(0.2 -0.2)">
       <use xlink:href="#DejaVuSans-31"/>
       <use x="63.623047" xlink:href="#DejaVuSans-32"/>
       <use x="127.246094" xlink:href="#DejaVuSans-30"/>
      </g>
     </g>
    </g>
    <g id="xtick_8">
     <g id="line2d_8">
      <g>
       <use style="stroke:#000000;stroke-width:0.8;" x="1239.07213" xlink:href="#mcf50271e01" y="626.0616"/>
      </g>
     </g>
     <g id="text_8">
      <!-- 140 -->
      <g transform="translate(1219.98463 648.258475)scale(0.2 -0.2)">
       <use xlink:href="#DejaVuSans-31"/>
       <use x="63.623047" xlink:href="#DejaVuSans-34"/>
       <use x="127.246094" xlink:href="#DejaVuSans-30"/>
      </g>
     </g>
    </g>
    <g id="text_9">
     <!-- Time -->
     <g transform="translate(684.012812 671.614725)scale(0.2 -0.2)">
      <defs>
       <path d="M -19 4666 
L 3928 4666 
L 3928 4134 
L 2272 4134 
L 2272 0 
L 1638 0 
L 1638 4134 
L -19 4134 
L -19 4666 
z
" id="DejaVuSans-54" transform="scale(0.015625)"/>
       <path d="M 603 3500 
L 1178 3500 
L 1178 0 
L 603 0 
L 603 3500 
z
M 603 4863 
L 1178 4863 
L 1178 4134 
L 603 4134 
L 603 4863 
z
" id="DejaVuSans-69" transform="scale(0.015625)"/>
       <path d="M 3328 2828 
Q 3544 3216 3844 3400 
Q 4144 3584 4550 3584 
Q 5097 3584 5394 3201 
Q 5691 2819 5691 2113 
L 5691 0 
L 5113 0 
L 5113 2094 
Q 5113 2597 4934 2840 
Q 4756 3084 4391 3084 
Q 3944 3084 3684 2787 
Q 3425 2491 3425 1978 
L 3425 0 
L 2847 0 
L 2847 2094 
Q 2847 2600 2669 2842 
Q 2491 3084 2119 3084 
Q 1678 3084 1418 2786 
Q 1159 2488 1159 1978 
L 1159 0 
L 581 0 
L 581 3500 
L 1159 3500 
L 1159 2956 
Q 1356 3278 1631 3431 
Q 1906 3584 2284 3584 
Q 2666 3584 2933 3390 
Q 3200 3197 3328 2828 
z
" id="DejaVuSans-6d" transform="scale(0.015625)"/>
       <path d="M 3597 1894 
L 3597 1613 
L 953 1613 
Q 991 1019 1311 708 
Q 1631 397 2203 397 
Q 2534 397 2845 478 
Q 3156 559 3463 722 
L 3463 178 
Q 3153 47 2828 -22 
Q 2503 -91 2169 -91 
Q 1331 -91 842 396 
Q 353 884 353 1716 
Q 353 2575 817 3079 
Q 1281 3584 2069 3584 
Q 2775 3584 3186 3129 
Q 3597 2675 3597 1894 
z
M 3022 2063 
Q 3016 2534 2758 2815 
Q 2500 3097 2075 3097 
Q 1594 3097 1305 2825 
Q 1016 2553 972 2059 
L 3022 2063 
z
" id="DejaVuSans-65" transform="scale(0.015625)"/>
      </defs>
      <use xlink:href="#DejaVuSans-54"/>
      <use x="57.958984" xlink:href="#DejaVuSans-69"/>
      <use x="85.742188" xlink:href="#DejaVuSans-6d"/>
      <use x="183.154297" xlink:href="#DejaVuSans-65"/>
     </g>
    </g>
   </g>
   <g id="matplotlib.axis_2">
    <g id="ytick_1">
     <g id="line2d_9">
      <defs>
       <path d="M 0 0 
L -3.5 0 
" id="ma7f9e8c1b1" style="stroke:#000000;stroke-width:0.8;"/>
      </defs>
      <g>
       <use style="stroke:#000000;stroke-width:0.8;" x="172.8" xlink:href="#ma7f9e8c1b1" y="613.380923"/>
      </g>
     </g>
     <g id="text_10">
      <!-- 350 -->
      <g transform="translate(127.625 620.979361)scale(0.2 -0.2)">
       <defs>
        <path d="M 2597 2516 
Q 3050 2419 3304 2112 
Q 3559 1806 3559 1356 
Q 3559 666 3084 287 
Q 2609 -91 1734 -91 
Q 1441 -91 1130 -33 
Q 819 25 488 141 
L 488 750 
Q 750 597 1062 519 
Q 1375 441 1716 441 
Q 2309 441 2620 675 
Q 2931 909 2931 1356 
Q 2931 1769 2642 2001 
Q 2353 2234 1838 2234 
L 1294 2234 
L 1294 2753 
L 1863 2753 
Q 2328 2753 2575 2939 
Q 2822 3125 2822 3475 
Q 2822 3834 2567 4026 
Q 2313 4219 1838 4219 
Q 1578 4219 1281 4162 
Q 984 4106 628 3988 
L 628 4550 
Q 988 4650 1302 4700 
Q 1616 4750 1894 4750 
Q 2613 4750 3031 4423 
Q 3450 4097 3450 3541 
Q 3450 3153 3228 2886 
Q 3006 2619 2597 2516 
z
" id="DejaVuSans-33" transform="scale(0.015625)"/>
        <path d="M 691 4666 
L 3169 4666 
L 3169 4134 
L 1269 4134 
L 1269 2991 
Q 1406 3038 1543 3061 
Q 1681 3084 1819 3084 
Q 2600 3084 3056 2656 
Q 3513 2228 3513 1497 
Q 3513 744 3044 326 
Q 2575 -91 1722 -91 
Q 1428 -91 1123 -41 
Q 819 9 494 109 
L 494 744 
Q 775 591 1075 516 
Q 1375 441 1709 441 
Q 2250 441 2565 725 
Q 2881 1009 2881 1497 
Q 2881 1984 2565 2268 
Q 2250 2553 1709 2553 
Q 1456 2553 1204 2497 
Q 953 2441 691 2322 
L 691 4666 
z
" id="DejaVuSans-35" transform="scale(0.015625)"/>
       </defs>
       <use xlink:href="#DejaVuSans-33"/>
       <use x="63.623047" xlink:href="#DejaVuSans-35"/>
       <use x="127.246094" xlink:href="#DejaVuSans-30"/>
      </g>
     </g>
    </g>
    <g id="ytick_2">
     <g id="line2d_10">
      <g>
       <use style="stroke:#000000;stroke-width:0.8;" x="172.8" xlink:href="#ma7f9e8c1b1" y="549.395269"/>
      </g>
     </g>
     <g id="text_11">
      <!-- 400 -->
      <g transform="translate(127.625 556.993706)scale(0.2 -0.2)">
       <use xlink:href="#DejaVuSans-34"/>
       <use x="63.623047" xlink:href="#DejaVuSans-30"/>
       <use x="127.246094" xlink:href="#DejaVuSans-30"/>
      </g>
     </g>
    </g>
    <g id="ytick_3">
     <g id="line2d_11">
      <g>
       <use style="stroke:#000000;stroke-width:0.8;" x="172.8" xlink:href="#ma7f9e8c1b1" y="485.409615"/>
      </g>
     </g>
     <g id="text_12">
      <!-- 450 -->
      <g transform="translate(127.625 493.008052)scale(0.2 -0.2)">
       <use xlink:href="#DejaVuSans-34"/>
       <use x="63.623047" xlink:href="#DejaVuSans-35"/>
       <use x="127.246094" xlink:href="#DejaVuSans-30"/>
      </g>
     </g>
    </g>
    <g id="ytick_4">
     <g id="line2d_12">
      <g>
       <use style="stroke:#000000;stroke-width:0.8;" x="172.8" xlink:href="#ma7f9e8c1b1" y="421.423961"/>
      </g>
     </g>
     <g id="text_13">
      <!-- 500 -->
      <g transform="translate(127.625 429.022398)scale(0.2 -0.2)">
       <use xlink:href="#DejaVuSans-35"/>
       <use x="63.623047" xlink:href="#DejaVuSans-30"/>
       <use x="127.246094" xlink:href="#DejaVuSans-30"/>
      </g>
     </g>
    </g>
    <g id="ytick_5">
     <g id="line2d_13">
      <g>
       <use style="stroke:#000000;stroke-width:0.8;" x="172.8" xlink:href="#ma7f9e8c1b1" y="357.438307"/>
      </g>
     </g>
     <g id="text_14">
      <!-- 550 -->
      <g transform="translate(127.625 365.036744)scale(0.2 -0.2)">
       <use xlink:href="#DejaVuSans-35"/>
       <use x="63.623047" xlink:href="#DejaVuSans-35"/>
       <use x="127.246094" xlink:href="#DejaVuSans-30"/>
      </g>
     </g>
    </g>
    <g id="ytick_6">
     <g id="line2d_14">
      <g>
       <use style="stroke:#000000;stroke-width:0.8;" x="172.8" xlink:href="#ma7f9e8c1b1" y="293.452652"/>
      </g>
     </g>
     <g id="text_15">
      <!-- 600 -->
      <g transform="translate(127.625 301.05109)scale(0.2 -0.2)">
       <use xlink:href="#DejaVuSans-36"/>
       <use x="63.623047" xlink:href="#DejaVuSans-30"/>
       <use x="127.246094" xlink:href="#DejaVuSans-30"/>
      </g>
     </g>
    </g>
    <g id="ytick_7">
     <g id="line2d_15">
      <g>
       <use style="stroke:#000000;stroke-width:0.8;" x="172.8" xlink:href="#ma7f9e8c1b1" y="229.466998"/>
      </g>
     </g>
     <g id="text_16">
      <!-- 650 -->
      <g transform="translate(127.625 237.065436)scale(0.2 -0.2)">
       <use xlink:href="#DejaVuSans-36"/>
       <use x="63.623047" xlink:href="#DejaVuSans-35"/>
       <use x="127.246094" xlink:href="#DejaVuSans-30"/>
      </g>
     </g>
    </g>
    <g id="ytick_8">
     <g id="line2d_16">
      <g>
       <use style="stroke:#000000;stroke-width:0.8;" x="172.8" xlink:href="#ma7f9e8c1b1" y="165.481344"/>
      </g>
     </g>
     <g id="text_17">
      <!-- 700 -->
      <g transform="translate(127.625 173.079782)scale(0.2 -0.2)">
       <defs>
        <path d="M 525 4666 
L 3525 4666 
L 3525 4397 
L 1831 0 
L 1172 0 
L 2766 4134 
L 525 4134 
L 525 4666 
z
" id="DejaVuSans-37" transform="scale(0.015625)"/>
       </defs>
       <use xlink:href="#DejaVuSans-37"/>
       <use x="63.623047" xlink:href="#DejaVuSans-30"/>
       <use x="127.246094" xlink:href="#DejaVuSans-30"/>
      </g>
     </g>
    </g>
    <g id="ytick_9">
     <g id="line2d_17">
      <g>
       <use style="stroke:#000000;stroke-width:0.8;" x="172.8" xlink:href="#ma7f9e8c1b1" y="101.49569"/>
      </g>
     </g>
     <g id="text_18">
      <!-- 750 -->
      <g transform="translate(127.625 109.094127)scale(0.2 -0.2)">
       <use xlink:href="#DejaVuSans-37"/>
       <use x="63.623047" xlink:href="#DejaVuSans-35"/>
       <use x="127.246094" xlink:href="#DejaVuSans-30"/>
      </g>
     </g>
    </g>
    <g id="text_19">
     <!-- Position -->
     <g transform="translate(119.465625 394.165325)rotate(-90)scale(0.2 -0.2)">
      <defs>
       <path d="M 1259 4147 
L 1259 2394 
L 2053 2394 
Q 2494 2394 2734 2622 
Q 2975 2850 2975 3272 
Q 2975 3691 2734 3919 
Q 2494 4147 2053 4147 
L 1259 4147 
z
M 628 4666 
L 2053 4666 
Q 2838 4666 3239 4311 
Q 3641 3956 3641 3272 
Q 3641 2581 3239 2228 
Q 2838 1875 2053 1875 
L 1259 1875 
L 1259 0 
L 628 0 
L 628 4666 
z
" id="DejaVuSans-50" transform="scale(0.015625)"/>
       <path d="M 1959 3097 
Q 1497 3097 1228 2736 
Q 959 2375 959 1747 
Q 959 1119 1226 758 
Q 1494 397 1959 397 
Q 2419 397 2687 759 
Q 2956 1122 2956 1747 
Q 2956 2369 2687 2733 
Q 2419 3097 1959 3097 
z
M 1959 3584 
Q 2709 3584 3137 3096 
Q 3566 2609 3566 1747 
Q 3566 888 3137 398 
Q 2709 -91 1959 -91 
Q 1206 -91 779 398 
Q 353 888 353 1747 
Q 353 2609 779 3096 
Q 1206 3584 1959 3584 
z
" id="DejaVuSans-6f" transform="scale(0.015625)"/>
       <path d="M 2834 3397 
L 2834 2853 
Q 2591 2978 2328 3040 
Q 2066 3103 1784 3103 
Q 1356 3103 1142 2972 
Q 928 2841 928 2578 
Q 928 2378 1081 2264 
Q 1234 2150 1697 2047 
L 1894 2003 
Q 2506 1872 2764 1633 
Q 3022 1394 3022 966 
Q 3022 478 2636 193 
Q 2250 -91 1575 -91 
Q 1294 -91 989 -36 
Q 684 19 347 128 
L 347 722 
Q 666 556 975 473 
Q 1284 391 1588 391 
Q 1994 391 2212 530 
Q 2431 669 2431 922 
Q 2431 1156 2273 1281 
Q 2116 1406 1581 1522 
L 1381 1569 
Q 847 1681 609 1914 
Q 372 2147 372 2553 
Q 372 3047 722 3315 
Q 1072 3584 1716 3584 
Q 2034 3584 2315 3537 
Q 2597 3491 2834 3397 
z
" id="DejaVuSans-73" transform="scale(0.015625)"/>
       <path d="M 1172 4494 
L 1172 3500 
L 2356 3500 
L 2356 3053 
L 1172 3053 
L 1172 1153 
Q 1172 725 1289 603 
Q 1406 481 1766 481 
L 2356 481 
L 2356 0 
L 1766 0 
Q 1100 0 847 248 
Q 594 497 594 1153 
L 594 3053 
L 172 3053 
L 172 3500 
L 594 3500 
L 594 4494 
L 1172 4494 
z
" id="DejaVuSans-74" transform="scale(0.015625)"/>
       <path d="M 3513 2113 
L 3513 0 
L 2938 0 
L 2938 2094 
Q 2938 2591 2744 2837 
Q 2550 3084 2163 3084 
Q 1697 3084 1428 2787 
Q 1159 2491 1159 1978 
L 1159 0 
L 581 0 
L 581 3500 
L 1159 3500 
L 1159 2956 
Q 1366 3272 1645 3428 
Q 1925 3584 2291 3584 
Q 2894 3584 3203 3211 
Q 3513 2838 3513 2113 
z
" id="DejaVuSans-6e" transform="scale(0.015625)"/>
      </defs>
      <use xlink:href="#DejaVuSans-50"/>
      <use x="56.677734" xlink:href="#DejaVuSans-6f"/>
      <use x="117.859375" xlink:href="#DejaVuSans-73"/>
      <use x="169.958984" xlink:href="#DejaVuSans-69"/>
      <use x="197.742188" xlink:href="#DejaVuSans-74"/>
      <use x="236.951172" xlink:href="#DejaVuSans-69"/>
      <use x="264.734375" xlink:href="#DejaVuSans-6f"/>
      <use x="325.916016" xlink:href="#DejaVuSans-6e"/>
     </g>
    </g>
   </g>
   <g id="line2d_18">
    <path clip-path="url(#p005337013d)" d="M 221.498182 380.665099 
L 228.821217 256.519453 
L 236.144252 215.893342 
L 243.467286 110.969169 
L 250.790321 179.977619 
L 258.113356 198.698319 
L 265.436391 211.249406 
L 272.759426 219.877676 
L 280.082461 224.13913 
L 294.72853 243.405708 
L 302.051565 244.836399 
L 309.3746 248.64435 
L 316.697635 254.040439 
L 324.02067 254.568382 
L 331.343705 256.246111 
L 338.66674 255.293092 
L 345.989774 262.576062 
L 353.312809 260.402374 
L 360.635844 258.45657 
L 367.958879 260.947306 
L 375.281914 260.930486 
L 382.604949 261.683835 
L 389.927984 261.742114 
L 397.251018 262.508716 
L 404.574053 260.307916 
L 411.897088 265.157389 
L 419.220123 261.19722 
L 426.543158 259.910303 
L 433.866193 254.718223 
L 441.189228 256.099939 
L 448.512262 254.805795 
L 455.835297 258.349053 
L 463.158332 259.519669 
L 470.481367 239.77732 
L 477.804402 224.349654 
L 485.127437 236.62113 
L 492.450472 249.817998 
L 499.773506 274.037091 
L 507.096541 279.593907 
L 514.419576 284.591006 
L 521.742611 281.271943 
L 529.065646 274.263923 
L 536.388681 277.035269 
L 551.034751 268.771553 
L 558.357785 272.21691 
L 565.68082 270.480083 
L 573.003855 267.649263 
L 580.32689 260.28872 
L 587.649925 250.40813 
L 594.97296 245.769972 
L 602.295995 241.487935 
L 609.619029 252.251708 
L 616.942064 249.31976 
L 624.265099 247.151666 
L 631.588134 248.528542 
L 638.911169 246.977286 
L 646.234204 247.023031 
L 653.557239 250.246883 
L 660.880273 257.076289 
L 668.203308 258.229516 
L 675.526343 254.894368 
L 682.849378 262.121926 
L 690.172413 261.563383 
L 697.495448 264.911681 
L 704.818483 267.177847 
L 712.141517 267.780348 
L 719.464552 389.525749 
L 726.787587 366.384487 
L 734.110622 344.918287 
L 741.433657 324.446254 
L 748.756692 308.51465 
L 756.079727 294.726783 
L 763.402761 302.046898 
L 770.725796 308.394891 
L 778.048831 296.212601 
L 785.371866 285.426452 
L 792.694901 280.663902 
L 800.017936 280.816189 
L 807.340971 274.88341 
L 814.664005 275.723567 
L 821.98704 268.00328 
L 829.310075 266.233112 
L 836.63311 263.45473 
L 843.956145 262.852732 
L 851.27918 259.923021 
L 858.602215 253.260246 
L 865.925249 247.731195 
L 873.248284 244.548491 
L 887.894354 243.761084 
L 895.217389 243.861085 
L 902.540424 247.931022 
L 909.863459 255.277008 
L 917.186494 252.664822 
L 924.509528 256.434882 
L 931.832563 256.003283 
L 939.155598 259.671939 
L 946.478633 262.290841 
L 953.801668 259.723126 
L 961.124703 258.052816 
L 968.447738 253.44029 
L 975.770772 257.063616 
L 983.093807 262.235333 
L 990.416842 265.867398 
L 997.739877 291.489942 
L 1005.062912 286.431863 
L 1019.708982 281.681022 
L 1027.032016 279.549199 
L 1034.355051 277.646195 
L 1041.678086 274.249601 
L 1049.001121 272.474516 
L 1056.324156 292.678288 
L 1063.647191 308.739961 
L 1070.970226 302.850473 
L 1078.29326 295.379041 
L 1085.616295 287.209522 
L 1100.262365 277.404361 
L 1107.5854 273.188139 
L 1114.908435 266.904211 
L 1122.23147 264.584007 
L 1129.554504 261.506774 
L 1136.877539 252.930307 
L 1144.200574 245.029724 
L 1151.523609 244.728971 
L 1158.846644 240.022805 
L 1166.169679 239.856783 
L 1173.492714 243.24216 
L 1180.815748 243.943722 
L 1188.138783 245.483597 
L 1195.461818 244.791477 
L 1195.461818 244.791477 
" style="fill:none;stroke:#ff0000;stroke-linecap:square;stroke-width:1.5;"/>
   </g>
   <g id="line2d_19">
    <path clip-path="url(#p005337013d)" d="M 221.498182 215.774068 
L 228.821217 276.790788 
L 236.144252 277.430645 
L 243.467286 109.0332 
L 250.790321 342.759997 
L 258.113356 281.461741 
L 265.436391 274.410522 
L 272.759426 267.973565 
L 280.082461 257.595092 
L 287.405496 269.918729 
L 294.72853 272.964446 
L 302.051565 254.050287 
L 309.3746 260.077735 
L 316.697635 265.798053 
L 324.02067 255.176434 
L 331.343705 258.746834 
L 338.66674 252.604211 
L 345.989774 274.99919 
L 353.312809 253.41043 
L 360.635844 253.41043 
L 367.958879 264.838268 
L 375.281914 259.540256 
L 382.604949 261.958913 
L 389.927984 260.730389 
L 397.251018 262.969887 
L 404.574053 255.432377 
L 411.897088 273.796259 
L 419.220123 252.38666 
L 426.543158 257.761454 
L 433.866193 246.154457 
L 441.189228 261.024723 
L 448.512262 253.922315 
L 455.835297 266.194764 
L 463.158332 261.447028 
L 470.481367 204.384622 
L 477.804402 204.384622 
L 485.127437 269.931526 
L 492.450472 277.40505 
L 499.773506 314.977426 
L 507.096541 278.569589 
L 514.419576 282.80544 
L 521.742611 265.209385 
L 529.065646 255.24042 
L 536.388681 279.465388 
L 543.711716 262.521987 
L 551.034751 260.832766 
L 558.357785 279.337417 
L 565.68082 266.885809 
L 573.003855 262.918698 
L 580.32689 248.611506 
L 587.649925 236.86374 
L 594.97296 244.465236 
L 602.295995 241.09959 
L 609.619029 278.492806 
L 616.942064 245.60418 
L 624.265099 245.60418 
L 631.588134 253.576793 
L 638.911169 245.744949 
L 646.234204 248.880246 
L 653.557239 257.300758 
L 660.880273 268.93335 
L 668.203308 257.454323 
L 675.526343 246.372008 
L 682.849378 274.116188 
L 690.172413 257.172786 
L 697.495448 268.383073 
L 704.818483 267.973565 
L 712.141517 265.465327 
L 719.464552 601.4412 
L 726.787587 275.894989 
L 734.110622 277.366659 
L 741.433657 273.565911 
L 748.756692 276.880368 
L 756.079727 273.860245 
L 763.402761 323.026822 
L 770.725796 323.026822 
L 778.048831 274.922407 
L 785.371866 271.300819 
L 800.017936 289.191208 
L 807.340971 270.673759 
L 814.664005 284.392284 
L 821.98704 259.65543 
L 829.310075 270.22586 
L 836.63311 264.787079 
L 843.956145 267.730419 
L 851.27918 259.617038 
L 858.602215 246.435994 
L 865.925249 244.414047 
L 873.248284 246.103268 
L 880.571319 250.390307 
L 887.894354 248.45794 
L 895.217389 248.45794 
L 902.540424 258.516485 
L 909.863459 269.304466 
L 917.186494 246.026486 
L 924.509528 262.521987 
L 931.832563 253.333647 
L 939.155598 264.825471 
L 946.478633 264.454354 
L 953.801668 252.258688 
L 961.124703 253.819938 
L 968.447738 244.951527 
L 975.770772 264.979036 
L 983.093807 271.134456 
L 990.416842 270.085091 
L 997.739877 333.571658 
L 1005.062912 265.09421 
L 1012.385947 272.196618 
L 1019.708982 272.388575 
L 1027.032016 272.759692 
L 1034.355051 272.759692 
L 1041.678086 267.807202 
L 1049.001121 270.31544 
L 1056.324156 329.77091 
L 1063.647191 330.333983 
L 1070.970226 280.949856 
L 1078.29326 275.523872 
L 1085.616295 270.507397 
L 1092.93933 274.99919 
L 1100.262365 271.799907 
L 1107.5854 269.995512 
L 1114.908435 260.76878 
L 1122.23147 266.796229 
L 1129.554504 261.894928 
L 1136.877539 243.531045 
L 1144.200574 238.898484 
L 1151.523609 253.359241 
L 1158.846644 238.975266 
L 1173.492714 255.112448 
L 1180.815748 248.45794 
L 1188.138783 250.479887 
L 1195.461818 244.746772 
L 1195.461818 244.746772 
" style="fill:none;stroke:#808080;stroke-linecap:square;stroke-width:1.5;"/>
   </g>
   <g id="patch_3">
    <path d="M 172.8 626.0616 
L 172.8 84.4128 
" style="fill:none;stroke:#000000;stroke-linecap:square;stroke-linejoin:miter;stroke-width:0.8;"/>
   </g>
   <g id="patch_4">
    <path d="M 1244.16 626.0616 
L 1244.16 84.4128 
" style="fill:none;stroke:#000000;stroke-linecap:square;stroke-linejoin:miter;stroke-width:0.8;"/>
   </g>
   <g id="patch_5">
    <path d="M 172.8 626.0616 
L 1244.16 626.0616 
" style="fill:none;stroke:#000000;stroke-linecap:square;stroke-linejoin:miter;stroke-width:0.8;"/>
   </g>
   <g id="patch_6">
    <path d="M 172.8 84.4128 
L 1244.16 84.4128 
" style="fill:none;stroke:#000000;stroke-linecap:square;stroke-linejoin:miter;stroke-width:0.8;"/>
   </g>
   <g id="text_20">
    <!-- 2D data part2 - Q=0.001 R=1 -->
    <g transform="translate(529.048125 78.4128)scale(0.24 -0.24)">
     <defs>
      <path d="M 1259 4147 
L 1259 519 
L 2022 519 
Q 2988 519 3436 956 
Q 3884 1394 3884 2338 
Q 3884 3275 3436 3711 
Q 2988 4147 2022 4147 
L 1259 4147 
z
M 628 4666 
L 1925 4666 
Q 3281 4666 3915 4102 
Q 4550 3538 4550 2338 
Q 4550 1131 3912 565 
Q 3275 0 1925 0 
L 628 0 
L 628 4666 
z
" id="DejaVuSans-44" transform="scale(0.015625)"/>
      <path id="DejaVuSans-20" transform="scale(0.015625)"/>
      <path d="M 2906 2969 
L 2906 4863 
L 3481 4863 
L 3481 0 
L 2906 0 
L 2906 525 
Q 2725 213 2448 61 
Q 2172 -91 1784 -91 
Q 1150 -91 751 415 
Q 353 922 353 1747 
Q 353 2572 751 3078 
Q 1150 3584 1784 3584 
Q 2172 3584 2448 3432 
Q 2725 3281 2906 2969 
z
M 947 1747 
Q 947 1113 1208 752 
Q 1469 391 1925 391 
Q 2381 391 2643 752 
Q 2906 1113 2906 1747 
Q 2906 2381 2643 2742 
Q 2381 3103 1925 3103 
Q 1469 3103 1208 2742 
Q 947 2381 947 1747 
z
" id="DejaVuSans-64" transform="scale(0.015625)"/>
      <path d="M 2194 1759 
Q 1497 1759 1228 1600 
Q 959 1441 959 1056 
Q 959 750 1161 570 
Q 1363 391 1709 391 
Q 2188 391 2477 730 
Q 2766 1069 2766 1631 
L 2766 1759 
L 2194 1759 
z
M 3341 1997 
L 3341 0 
L 2766 0 
L 2766 531 
Q 2569 213 2275 61 
Q 1981 -91 1556 -91 
Q 1019 -91 701 211 
Q 384 513 384 1019 
Q 384 1609 779 1909 
Q 1175 2209 1959 2209 
L 2766 2209 
L 2766 2266 
Q 2766 2663 2505 2880 
Q 2244 3097 1772 3097 
Q 1472 3097 1187 3025 
Q 903 2953 641 2809 
L 641 3341 
Q 956 3463 1253 3523 
Q 1550 3584 1831 3584 
Q 2591 3584 2966 3190 
Q 3341 2797 3341 1997 
z
" id="DejaVuSans-61" transform="scale(0.015625)"/>
      <path d="M 1159 525 
L 1159 -1331 
L 581 -1331 
L 581 3500 
L 1159 3500 
L 1159 2969 
Q 1341 3281 1617 3432 
Q 1894 3584 2278 3584 
Q 2916 3584 3314 3078 
Q 3713 2572 3713 1747 
Q 3713 922 3314 415 
Q 2916 -91 2278 -91 
Q 1894 -91 1617 61 
Q 1341 213 1159 525 
z
M 3116 1747 
Q 3116 2381 2855 2742 
Q 2594 3103 2138 3103 
Q 1681 3103 1420 2742 
Q 1159 2381 1159 1747 
Q 1159 1113 1420 752 
Q 1681 391 2138 391 
Q 2594 391 2855 752 
Q 3116 1113 3116 1747 
z
" id="DejaVuSans-70" transform="scale(0.015625)"/>
      <path d="M 2631 2963 
Q 2534 3019 2420 3045 
Q 2306 3072 2169 3072 
Q 1681 3072 1420 2755 
Q 1159 2438 1159 1844 
L 1159 0 
L 581 0 
L 581 3500 
L 1159 3500 
L 1159 2956 
Q 1341 3275 1631 3429 
Q 1922 3584 2338 3584 
Q 2397 3584 2469 3576 
Q 2541 3569 2628 3553 
L 2631 2963 
z
" id="DejaVuSans-72" transform="scale(0.015625)"/>
      <path d="M 313 2009 
L 1997 2009 
L 1997 1497 
L 313 1497 
L 313 2009 
z
" id="DejaVuSans-2d" transform="scale(0.015625)"/>
      <path d="M 2522 4238 
Q 1834 4238 1429 3725 
Q 1025 3213 1025 2328 
Q 1025 1447 1429 934 
Q 1834 422 2522 422 
Q 3209 422 3611 934 
Q 4013 1447 4013 2328 
Q 4013 3213 3611 3725 
Q 3209 4238 2522 4238 
z
M 3406 84 
L 4238 -825 
L 3475 -825 
L 2784 -78 
Q 2681 -84 2626 -87 
Q 2572 -91 2522 -91 
Q 1538 -91 948 567 
Q 359 1225 359 2328 
Q 359 3434 948 4092 
Q 1538 4750 2522 4750 
Q 3503 4750 4090 4092 
Q 4678 3434 4678 2328 
Q 4678 1516 4351 937 
Q 4025 359 3406 84 
z
" id="DejaVuSans-51" transform="scale(0.015625)"/>
      <path d="M 678 2906 
L 4684 2906 
L 4684 2381 
L 678 2381 
L 678 2906 
z
M 678 1631 
L 4684 1631 
L 4684 1100 
L 678 1100 
L 678 1631 
z
" id="DejaVuSans-3d" transform="scale(0.015625)"/>
      <path d="M 684 794 
L 1344 794 
L 1344 0 
L 684 0 
L 684 794 
z
" id="DejaVuSans-2e" transform="scale(0.015625)"/>
      <path d="M 2841 2188 
Q 3044 2119 3236 1894 
Q 3428 1669 3622 1275 
L 4263 0 
L 3584 0 
L 2988 1197 
Q 2756 1666 2539 1819 
Q 2322 1972 1947 1972 
L 1259 1972 
L 1259 0 
L 628 0 
L 628 4666 
L 2053 4666 
Q 2853 4666 3247 4331 
Q 3641 3997 3641 3322 
Q 3641 2881 3436 2590 
Q 3231 2300 2841 2188 
z
M 1259 4147 
L 1259 2491 
L 2053 2491 
Q 2509 2491 2742 2702 
Q 2975 2913 2975 3322 
Q 2975 3731 2742 3939 
Q 2509 4147 2053 4147 
L 1259 4147 
z
" id="DejaVuSans-52" transform="scale(0.015625)"/>
     </defs>
     <use xlink:href="#DejaVuSans-32"/>
     <use x="63.623047" xlink:href="#DejaVuSans-44"/>
     <use x="140.625" xlink:href="#DejaVuSans-20"/>
     <use x="172.412109" xlink:href="#DejaVuSans-64"/>
     <use x="235.888672" xlink:href="#DejaVuSans-61"/>
     <use x="297.167969" xlink:href="#DejaVuSans-74"/>
     <use x="336.376953" xlink:href="#DejaVuSans-61"/>
     <use x="397.65625" xlink:href="#DejaVuSans-20"/>
     <use x="429.443359" xlink:href="#DejaVuSans-70"/>
     <use x="492.919922" xlink:href="#DejaVuSans-61"/>
     <use x="554.199219" xlink:href="#DejaVuSans-72"/>
     <use x="595.3125" xlink:href="#DejaVuSans-74"/>
     <use x="634.521484" xlink:href="#DejaVuSans-32"/>
     <use x="698.144531" xlink:href="#DejaVuSans-20"/>
     <use x="729.931641" xlink:href="#DejaVuSans-2d"/>
     <use x="766.015625" xlink:href="#DejaVuSans-20"/>
     <use x="797.802734" xlink:href="#DejaVuSans-51"/>
     <use x="876.513672" xlink:href="#DejaVuSans-3d"/>
     <use x="960.302734" xlink:href="#DejaVuSans-30"/>
     <use x="1023.925781" xlink:href="#DejaVuSans-2e"/>
     <use x="1055.712891" xlink:href="#DejaVuSans-30"/>
     <use x="1119.335938" xlink:href="#DejaVuSans-30"/>
     <use x="1182.958984" xlink:href="#DejaVuSans-31"/>
     <use x="1246.582031" xlink:href="#DejaVuSans-20"/>
     <use x="1278.369141" xlink:href="#DejaVuSans-52"/>
     <use x="1347.851562" xlink:href="#DejaVuSans-3d"/>
     <use x="1431.640625" xlink:href="#DejaVuSans-31"/>
    </g>
   </g>
  </g>
 </g>
 <defs>
  <clipPath id="p005337013d">
   <rect height="541.6488" width="1071.36" x="172.8" y="84.4128"/>
  </clipPath>
 </defs>
</svg>
