<?xml version="1.0" encoding="utf-8" standalone="no"?>
<!DOCTYPE svg PUBLIC "-//W3C//DTD SVG 1.1//EN"
  "http://www.w3.org/Graphics/SVG/1.1/DTD/svg11.dtd">
<svg height="703.44pt" version="1.1" viewBox="0 0 1382.4 703.44" width="1382.4pt" xmlns="http://www.w3.org/2000/svg" xmlns:xlink="http://www.w3.org/1999/xlink">
 <metadata>
  <rdf:RDF xmlns:cc="http://creativecommons.org/ns#" xmlns:dc="http://purl.org/dc/elements/1.1/" xmlns:rdf="http://www.w3.org/1999/02/22-rdf-syntax-ns#">
   <cc:Work>
    <dc:type rdf:resource="http://purl.org/dc/dcmitype/StillImage"/>
    <dc:date>2021-10-05T21:41:28.617877</dc:date>
    <dc:format>image/svg+xml</dc:format>
    <dc:creator>
     <cc:Agent>
      <dc:title>Matplotlib v3.4.3, https://matplotlib.org/</dc:title>
     </cc:Agent>
    </dc:creator>
   </cc:Work>
  </rdf:RDF>
 </metadata>
 <defs>
  <style type="text/css">*{stroke-linecap:butt;stroke-linejoin:round;}</style>
 </defs>
 <g id="figure_1">
  <g id="patch_1">
   <path d="M 0 703.44 
L 1382.4 703.44 
L 1382.4 0 
L 0 0 
z
" style="fill:#ffffff;"/>
  </g>
  <g id="axes_1">
   <g id="patch_2">
    <path d="M 172.8 626.0616 
L 1244.16 626.0616 
L 1244.16 84.4128 
L 172.8 84.4128 
z
" style="fill:#ffffff;"/>
   </g>
   <g id="matplotlib.axis_1">
    <g id="xtick_1">
     <g id="line2d_1">
      <defs>
       <path d="M 0 0 
L 0 3.5 
" id="mab2cb4c3e7" style="stroke:#000000;stroke-width:0.8;"/>
      </defs>
      <g>
       <use style="stroke:#000000;stroke-width:0.8;" x="221.498182" xlink:href="#mab2cb4c3e7" y="626.0616"/>
      </g>
     </g>
     <g id="text_1">
      <!-- 0 -->
      <g transform="translate(215.135682 648.258475)scale(0.2 -0.2)">
       <defs>
        <path d="M 2034 4250 
Q 1547 4250 1301 3770 
Q 1056 3291 1056 2328 
Q 1056 1369 1301 889 
Q 1547 409 2034 409 
Q 2525 409 2770 889 
Q 3016 1369 3016 2328 
Q 3016 3291 2770 3770 
Q 2525 4250 2034 4250 
z
M 2034 4750 
Q 2819 4750 3233 4129 
Q 3647 3509 3647 2328 
Q 3647 1150 3233 529 
Q 2819 -91 2034 -91 
Q 1250 -91 836 529 
Q 422 1150 422 2328 
Q 422 3509 836 4129 
Q 1250 4750 2034 4750 
z
" id="DejaVuSans-30" transform="scale(0.015625)"/>
       </defs>
       <use xlink:href="#DejaVuSans-30"/>
      </g>
     </g>
    </g>
    <g id="xtick_2">
     <g id="line2d_2">
      <g>
       <use style="stroke:#000000;stroke-width:0.8;" x="373.918156" xlink:href="#mab2cb4c3e7" y="626.0616"/>
      </g>
     </g>
     <g id="text_2">
      <!-- 100 -->
      <g transform="translate(354.830656 648.258475)scale(0.2 -0.2)">
       <defs>
        <path d="M 794 531 
L 1825 531 
L 1825 4091 
L 703 3866 
L 703 4441 
L 1819 4666 
L 2450 4666 
L 2450 531 
L 3481 531 
L 3481 0 
L 794 0 
L 794 531 
z
" id="DejaVuSans-31" transform="scale(0.015625)"/>
       </defs>
       <use xlink:href="#DejaVuSans-31"/>
       <use x="63.623047" xlink:href="#DejaVuSans-30"/>
       <use x="127.246094" xlink:href="#DejaVuSans-30"/>
      </g>
     </g>
    </g>
    <g id="xtick_3">
     <g id="line2d_3">
      <g>
       <use style="stroke:#000000;stroke-width:0.8;" x="526.338131" xlink:href="#mab2cb4c3e7" y="626.0616"/>
      </g>
     </g>
     <g id="text_3">
      <!-- 200 -->
      <g transform="translate(507.250631 648.258475)scale(0.2 -0.2)">
       <defs>
        <path d="M 1228 531 
L 3431 531 
L 3431 0 
L 469 0 
L 469 531 
Q 828 903 1448 1529 
Q 2069 2156 2228 2338 
Q 2531 2678 2651 2914 
Q 2772 3150 2772 3378 
Q 2772 3750 2511 3984 
Q 2250 4219 1831 4219 
Q 1534 4219 1204 4116 
Q 875 4013 500 3803 
L 500 4441 
Q 881 4594 1212 4672 
Q 1544 4750 1819 4750 
Q 2544 4750 2975 4387 
Q 3406 4025 3406 3419 
Q 3406 3131 3298 2873 
Q 3191 2616 2906 2266 
Q 2828 2175 2409 1742 
Q 1991 1309 1228 531 
z
" id="DejaVuSans-32" transform="scale(0.015625)"/>
       </defs>
       <use xlink:href="#DejaVuSans-32"/>
       <use x="63.623047" xlink:href="#DejaVuSans-30"/>
       <use x="127.246094" xlink:href="#DejaVuSans-30"/>
      </g>
     </g>
    </g>
    <g id="xtick_4">
     <g id="line2d_4">
      <g>
       <use style="stroke:#000000;stroke-width:0.8;" x="678.758105" xlink:href="#mab2cb4c3e7" y="626.0616"/>
      </g>
     </g>
     <g id="text_4">
      <!-- 300 -->
      <g transform="translate(659.670605 648.258475)scale(0.2 -0.2)">
       <defs>
        <path d="M 2597 2516 
Q 3050 2419 3304 2112 
Q 3559 1806 3559 1356 
Q 3559 666 3084 287 
Q 2609 -91 1734 -91 
Q 1441 -91 1130 -33 
Q 819 25 488 141 
L 488 750 
Q 750 597 1062 519 
Q 1375 441 1716 441 
Q 2309 441 2620 675 
Q 2931 909 2931 1356 
Q 2931 1769 2642 2001 
Q 2353 2234 1838 2234 
L 1294 2234 
L 1294 2753 
L 1863 2753 
Q 2328 2753 2575 2939 
Q 2822 3125 2822 3475 
Q 2822 3834 2567 4026 
Q 2313 4219 1838 4219 
Q 1578 4219 1281 4162 
Q 984 4106 628 3988 
L 628 4550 
Q 988 4650 1302 4700 
Q 1616 4750 1894 4750 
Q 2613 4750 3031 4423 
Q 3450 4097 3450 3541 
Q 3450 3153 3228 2886 
Q 3006 2619 2597 2516 
z
" id="DejaVuSans-33" transform="scale(0.015625)"/>
       </defs>
       <use xlink:href="#DejaVuSans-33"/>
       <use x="63.623047" xlink:href="#DejaVuSans-30"/>
       <use x="127.246094" xlink:href="#DejaVuSans-30"/>
      </g>
     </g>
    </g>
    <g id="xtick_5">
     <g id="line2d_5">
      <g>
       <use style="stroke:#000000;stroke-width:0.8;" x="831.178079" xlink:href="#mab2cb4c3e7" y="626.0616"/>
      </g>
     </g>
     <g id="text_5">
      <!-- 400 -->
      <g transform="translate(812.090579 648.258475)scale(0.2 -0.2)">
       <defs>
        <path d="M 2419 4116 
L 825 1625 
L 2419 1625 
L 2419 4116 
z
M 2253 4666 
L 3047 4666 
L 3047 1625 
L 3713 1625 
L 3713 1100 
L 3047 1100 
L 3047 0 
L 2419 0 
L 2419 1100 
L 313 1100 
L 313 1709 
L 2253 4666 
z
" id="DejaVuSans-34" transform="scale(0.015625)"/>
       </defs>
       <use xlink:href="#DejaVuSans-34"/>
       <use x="63.623047" xlink:href="#DejaVuSans-30"/>
       <use x="127.246094" xlink:href="#DejaVuSans-30"/>
      </g>
     </g>
    </g>
    <g id="xtick_6">
     <g id="line2d_6">
      <g>
       <use style="stroke:#000000;stroke-width:0.8;" x="983.598054" xlink:href="#mab2cb4c3e7" y="626.0616"/>
      </g>
     </g>
     <g id="text_6">
      <!-- 500 -->
      <g transform="translate(964.510554 648.258475)scale(0.2 -0.2)">
       <defs>
        <path d="M 691 4666 
L 3169 4666 
L 3169 4134 
L 1269 4134 
L 1269 2991 
Q 1406 3038 1543 3061 
Q 1681 3084 1819 3084 
Q 2600 3084 3056 2656 
Q 3513 2228 3513 1497 
Q 3513 744 3044 326 
Q 2575 -91 1722 -91 
Q 1428 -91 1123 -41 
Q 819 9 494 109 
L 494 744 
Q 775 591 1075 516 
Q 1375 441 1709 441 
Q 2250 441 2565 725 
Q 2881 1009 2881 1497 
Q 2881 1984 2565 2268 
Q 2250 2553 1709 2553 
Q 1456 2553 1204 2497 
Q 953 2441 691 2322 
L 691 4666 
z
" id="DejaVuSans-35" transform="scale(0.015625)"/>
       </defs>
       <use xlink:href="#DejaVuSans-35"/>
       <use x="63.623047" xlink:href="#DejaVuSans-30"/>
       <use x="127.246094" xlink:href="#DejaVuSans-30"/>
      </g>
     </g>
    </g>
    <g id="xtick_7">
     <g id="line2d_7">
      <g>
       <use style="stroke:#000000;stroke-width:0.8;" x="1136.018028" xlink:href="#mab2cb4c3e7" y="626.0616"/>
      </g>
     </g>
     <g id="text_7">
      <!-- 600 -->
      <g transform="translate(1116.930528 648.258475)scale(0.2 -0.2)">
       <defs>
        <path d="M 2113 2584 
Q 1688 2584 1439 2293 
Q 1191 2003 1191 1497 
Q 1191 994 1439 701 
Q 1688 409 2113 409 
Q 2538 409 2786 701 
Q 3034 994 3034 1497 
Q 3034 2003 2786 2293 
Q 2538 2584 2113 2584 
z
M 3366 4563 
L 3366 3988 
Q 3128 4100 2886 4159 
Q 2644 4219 2406 4219 
Q 1781 4219 1451 3797 
Q 1122 3375 1075 2522 
Q 1259 2794 1537 2939 
Q 1816 3084 2150 3084 
Q 2853 3084 3261 2657 
Q 3669 2231 3669 1497 
Q 3669 778 3244 343 
Q 2819 -91 2113 -91 
Q 1303 -91 875 529 
Q 447 1150 447 2328 
Q 447 3434 972 4092 
Q 1497 4750 2381 4750 
Q 2619 4750 2861 4703 
Q 3103 4656 3366 4563 
z
" id="DejaVuSans-36" transform="scale(0.015625)"/>
       </defs>
       <use xlink:href="#DejaVuSans-36"/>
       <use x="63.623047" xlink:href="#DejaVuSans-30"/>
       <use x="127.246094" xlink:href="#DejaVuSans-30"/>
      </g>
     </g>
    </g>
    <g id="text_8">
     <!-- Time -->
     <g transform="translate(684.012812 671.614725)scale(0.2 -0.2)">
      <defs>
       <path d="M -19 4666 
L 3928 4666 
L 3928 4134 
L 2272 4134 
L 2272 0 
L 1638 0 
L 1638 4134 
L -19 4134 
L -19 4666 
z
" id="DejaVuSans-54" transform="scale(0.015625)"/>
       <path d="M 603 3500 
L 1178 3500 
L 1178 0 
L 603 0 
L 603 3500 
z
M 603 4863 
L 1178 4863 
L 1178 4134 
L 603 4134 
L 603 4863 
z
" id="DejaVuSans-69" transform="scale(0.015625)"/>
       <path d="M 3328 2828 
Q 3544 3216 3844 3400 
Q 4144 3584 4550 3584 
Q 5097 3584 5394 3201 
Q 5691 2819 5691 2113 
L 5691 0 
L 5113 0 
L 5113 2094 
Q 5113 2597 4934 2840 
Q 4756 3084 4391 3084 
Q 3944 3084 3684 2787 
Q 3425 2491 3425 1978 
L 3425 0 
L 2847 0 
L 2847 2094 
Q 2847 2600 2669 2842 
Q 2491 3084 2119 3084 
Q 1678 3084 1418 2786 
Q 1159 2488 1159 1978 
L 1159 0 
L 581 0 
L 581 3500 
L 1159 3500 
L 1159 2956 
Q 1356 3278 1631 3431 
Q 1906 3584 2284 3584 
Q 2666 3584 2933 3390 
Q 3200 3197 3328 2828 
z
" id="DejaVuSans-6d" transform="scale(0.015625)"/>
       <path d="M 3597 1894 
L 3597 1613 
L 953 1613 
Q 991 1019 1311 708 
Q 1631 397 2203 397 
Q 2534 397 2845 478 
Q 3156 559 3463 722 
L 3463 178 
Q 3153 47 2828 -22 
Q 2503 -91 2169 -91 
Q 1331 -91 842 396 
Q 353 884 353 1716 
Q 353 2575 817 3079 
Q 1281 3584 2069 3584 
Q 2775 3584 3186 3129 
Q 3597 2675 3597 1894 
z
M 3022 2063 
Q 3016 2534 2758 2815 
Q 2500 3097 2075 3097 
Q 1594 3097 1305 2825 
Q 1016 2553 972 2059 
L 3022 2063 
z
" id="DejaVuSans-65" transform="scale(0.015625)"/>
      </defs>
      <use xlink:href="#DejaVuSans-54"/>
      <use x="57.958984" xlink:href="#DejaVuSans-69"/>
      <use x="85.742188" xlink:href="#DejaVuSans-6d"/>
      <use x="183.154297" xlink:href="#DejaVuSans-65"/>
     </g>
    </g>
   </g>
   <g id="matplotlib.axis_2">
    <g id="ytick_1">
     <g id="line2d_8">
      <defs>
       <path d="M 0 0 
L -3.5 0 
" id="mb73359493c" style="stroke:#000000;stroke-width:0.8;"/>
      </defs>
      <g>
       <use style="stroke:#000000;stroke-width:0.8;" x="172.8" xlink:href="#mb73359493c" y="547.609831"/>
      </g>
     </g>
     <g id="text_9">
      <!-- −2 -->
      <g transform="translate(136.315625 555.208268)scale(0.2 -0.2)">
       <defs>
        <path d="M 678 2272 
L 4684 2272 
L 4684 1741 
L 678 1741 
L 678 2272 
z
" id="DejaVuSans-2212" transform="scale(0.015625)"/>
       </defs>
       <use xlink:href="#DejaVuSans-2212"/>
       <use x="83.789062" xlink:href="#DejaVuSans-32"/>
      </g>
     </g>
    </g>
    <g id="ytick_2">
     <g id="line2d_9">
      <g>
       <use style="stroke:#000000;stroke-width:0.8;" x="172.8" xlink:href="#mb73359493c" y="462.095073"/>
      </g>
     </g>
     <g id="text_10">
      <!-- −1 -->
      <g transform="translate(136.315625 469.693511)scale(0.2 -0.2)">
       <use xlink:href="#DejaVuSans-2212"/>
       <use x="83.789062" xlink:href="#DejaVuSans-31"/>
      </g>
     </g>
    </g>
    <g id="ytick_3">
     <g id="line2d_10">
      <g>
       <use style="stroke:#000000;stroke-width:0.8;" x="172.8" xlink:href="#mb73359493c" y="376.580315"/>
      </g>
     </g>
     <g id="text_11">
      <!-- 0 -->
      <g transform="translate(153.075 384.178753)scale(0.2 -0.2)">
       <use xlink:href="#DejaVuSans-30"/>
      </g>
     </g>
    </g>
    <g id="ytick_4">
     <g id="line2d_11">
      <g>
       <use style="stroke:#000000;stroke-width:0.8;" x="172.8" xlink:href="#mb73359493c" y="291.065557"/>
      </g>
     </g>
     <g id="text_12">
      <!-- 1 -->
      <g transform="translate(153.075 298.663995)scale(0.2 -0.2)">
       <use xlink:href="#DejaVuSans-31"/>
      </g>
     </g>
    </g>
    <g id="ytick_5">
     <g id="line2d_12">
      <g>
       <use style="stroke:#000000;stroke-width:0.8;" x="172.8" xlink:href="#mb73359493c" y="205.5508"/>
      </g>
     </g>
     <g id="text_13">
      <!-- 2 -->
      <g transform="translate(153.075 213.149237)scale(0.2 -0.2)">
       <use xlink:href="#DejaVuSans-32"/>
      </g>
     </g>
    </g>
    <g id="ytick_6">
     <g id="line2d_13">
      <g>
       <use style="stroke:#000000;stroke-width:0.8;" x="172.8" xlink:href="#mb73359493c" y="120.036042"/>
      </g>
     </g>
     <g id="text_14">
      <!-- 3 -->
      <g transform="translate(153.075 127.634479)scale(0.2 -0.2)">
       <use xlink:href="#DejaVuSans-33"/>
      </g>
     </g>
    </g>
    <g id="text_15">
     <!-- Position -->
     <g transform="translate(128.15625 394.165325)rotate(-90)scale(0.2 -0.2)">
      <defs>
       <path d="M 1259 4147 
L 1259 2394 
L 2053 2394 
Q 2494 2394 2734 2622 
Q 2975 2850 2975 3272 
Q 2975 3691 2734 3919 
Q 2494 4147 2053 4147 
L 1259 4147 
z
M 628 4666 
L 2053 4666 
Q 2838 4666 3239 4311 
Q 3641 3956 3641 3272 
Q 3641 2581 3239 2228 
Q 2838 1875 2053 1875 
L 1259 1875 
L 1259 0 
L 628 0 
L 628 4666 
z
" id="DejaVuSans-50" transform="scale(0.015625)"/>
       <path d="M 1959 3097 
Q 1497 3097 1228 2736 
Q 959 2375 959 1747 
Q 959 1119 1226 758 
Q 1494 397 1959 397 
Q 2419 397 2687 759 
Q 2956 1122 2956 1747 
Q 2956 2369 2687 2733 
Q 2419 3097 1959 3097 
z
M 1959 3584 
Q 2709 3584 3137 3096 
Q 3566 2609 3566 1747 
Q 3566 888 3137 398 
Q 2709 -91 1959 -91 
Q 1206 -91 779 398 
Q 353 888 353 1747 
Q 353 2609 779 3096 
Q 1206 3584 1959 3584 
z
" id="DejaVuSans-6f" transform="scale(0.015625)"/>
       <path d="M 2834 3397 
L 2834 2853 
Q 2591 2978 2328 3040 
Q 2066 3103 1784 3103 
Q 1356 3103 1142 2972 
Q 928 2841 928 2578 
Q 928 2378 1081 2264 
Q 1234 2150 1697 2047 
L 1894 2003 
Q 2506 1872 2764 1633 
Q 3022 1394 3022 966 
Q 3022 478 2636 193 
Q 2250 -91 1575 -91 
Q 1294 -91 989 -36 
Q 684 19 347 128 
L 347 722 
Q 666 556 975 473 
Q 1284 391 1588 391 
Q 1994 391 2212 530 
Q 2431 669 2431 922 
Q 2431 1156 2273 1281 
Q 2116 1406 1581 1522 
L 1381 1569 
Q 847 1681 609 1914 
Q 372 2147 372 2553 
Q 372 3047 722 3315 
Q 1072 3584 1716 3584 
Q 2034 3584 2315 3537 
Q 2597 3491 2834 3397 
z
" id="DejaVuSans-73" transform="scale(0.015625)"/>
       <path d="M 1172 4494 
L 1172 3500 
L 2356 3500 
L 2356 3053 
L 1172 3053 
L 1172 1153 
Q 1172 725 1289 603 
Q 1406 481 1766 481 
L 2356 481 
L 2356 0 
L 1766 0 
Q 1100 0 847 248 
Q 594 497 594 1153 
L 594 3053 
L 172 3053 
L 172 3500 
L 594 3500 
L 594 4494 
L 1172 4494 
z
" id="DejaVuSans-74" transform="scale(0.015625)"/>
       <path d="M 3513 2113 
L 3513 0 
L 2938 0 
L 2938 2094 
Q 2938 2591 2744 2837 
Q 2550 3084 2163 3084 
Q 1697 3084 1428 2787 
Q 1159 2491 1159 1978 
L 1159 0 
L 581 0 
L 581 3500 
L 1159 3500 
L 1159 2956 
Q 1366 3272 1645 3428 
Q 1925 3584 2291 3584 
Q 2894 3584 3203 3211 
Q 3513 2838 3513 2113 
z
" id="DejaVuSans-6e" transform="scale(0.015625)"/>
      </defs>
      <use xlink:href="#DejaVuSans-50"/>
      <use x="56.677734" xlink:href="#DejaVuSans-6f"/>
      <use x="117.859375" xlink:href="#DejaVuSans-73"/>
      <use x="169.958984" xlink:href="#DejaVuSans-69"/>
      <use x="197.742188" xlink:href="#DejaVuSans-74"/>
      <use x="236.951172" xlink:href="#DejaVuSans-69"/>
      <use x="264.734375" xlink:href="#DejaVuSans-6f"/>
      <use x="325.916016" xlink:href="#DejaVuSans-6e"/>
     </g>
    </g>
   </g>
   <g id="line2d_14">
    <path clip-path="url(#p753a0ff08a)" d="M 221.498182 395.795709 
L 223.024771 475.230083 
L 224.551359 452.543449 
L 226.077948 451.665404 
L 227.604537 427.262683 
L 229.131126 447.860086 
L 230.657714 364.637612 
L 232.184303 368.619484 
L 233.710892 319.462528 
L 235.237481 370.68902 
L 236.76407 344.437641 
L 238.290658 313.691079 
L 239.817247 323.168154 
L 242.870425 346.568005 
L 244.397013 332.932444 
L 245.923602 321.949998 
L 247.450191 332.624773 
L 248.97678 327.329338 
L 250.503368 320.903916 
L 252.029957 310.348264 
L 253.556546 321.423039 
L 255.083135 329.891462 
L 256.609724 327.905102 
L 258.136312 353.808755 
L 259.662901 351.988136 
L 261.18949 356.317435 
L 262.716079 377.330055 
L 264.242667 394.361954 
L 265.769256 403.292917 
L 267.295845 392.113761 
L 268.822434 387.210497 
L 270.349023 399.543842 
L 271.875611 396.301478 
L 273.4022 404.514484 
L 274.928789 388.765083 
L 276.455378 400.516473 
L 277.981966 410.465993 
L 279.508555 405.99606 
L 281.035144 409.431599 
L 282.561733 400.403778 
L 284.088321 399.632171 
L 285.61491 406.31358 
L 287.141499 419.500969 
L 288.668088 410.280718 
L 290.194677 415.256276 
L 291.721265 410.873228 
L 293.247854 410.909971 
L 294.774443 417.527363 
L 296.301032 426.266785 
L 297.82762 413.837786 
L 299.354209 411.74603 
L 300.880798 399.980093 
L 302.407387 409.756261 
L 303.933975 405.377423 
L 305.460564 409.701474 
L 306.987153 412.400539 
L 308.513742 417.126132 
L 310.040331 422.301422 
L 311.566919 429.111969 
L 313.093508 425.747099 
L 314.620097 429.114505 
L 316.146686 431.157132 
L 317.673274 432.080225 
L 319.199863 433.788945 
L 320.726452 423.29214 
L 322.253041 428.311207 
L 323.77963 429.095272 
L 325.306218 430.055036 
L 326.832807 426.20986 
L 328.359396 427.935007 
L 329.885985 423.320023 
L 331.412573 427.684566 
L 332.939162 425.688087 
L 334.465751 420.707962 
L 335.99234 420.203966 
L 337.518928 423.225003 
L 339.045517 421.575486 
L 340.572106 420.931002 
L 342.098695 424.177384 
L 343.625284 426.324093 
L 345.151872 421.237573 
L 346.678461 424.348419 
L 348.20505 424.711969 
L 349.731639 415.416605 
L 351.258227 414.736767 
L 352.784816 413.061822 
L 354.311405 416.169053 
L 355.837994 415.205199 
L 357.364583 410.85485 
L 358.891171 413.951115 
L 360.41776 414.019229 
L 361.944349 415.08462 
L 363.470938 415.477169 
L 364.997526 419.371322 
L 366.524115 416.352899 
L 368.050704 413.725011 
L 369.577293 411.451659 
L 371.103881 415.718822 
L 372.63047 412.366608 
L 374.157059 409.716743 
L 375.683648 411.360774 
L 377.210237 410.804881 
L 378.736825 411.177092 
L 380.263414 410.164607 
L 381.790003 408.620211 
L 383.316592 409.326331 
L 384.84318 413.701575 
L 386.369769 409.904626 
L 387.896358 412.485131 
L 389.422947 414.583591 
L 390.949535 415.880309 
L 392.476124 411.560684 
L 394.002713 411.538104 
L 395.529302 406.941038 
L 397.055891 407.928697 
L 400.109068 400.98646 
L 401.635657 405.757731 
L 403.162246 402.612045 
L 404.688834 403.919904 
L 406.215423 400.258961 
L 407.742012 397.33307 
L 409.268601 398.102962 
L 410.79519 395.912621 
L 412.321778 389.500348 
L 413.848367 389.465103 
L 415.374956 387.183235 
L 416.901545 390.07792 
L 418.428133 387.612069 
L 419.954722 386.411484 
L 421.481311 389.419334 
L 423.0079 389.585025 
L 424.534488 386.281828 
L 426.061077 390.122895 
L 427.587666 389.78455 
L 429.114255 384.320321 
L 430.640844 385.702066 
L 432.167432 388.2859 
L 433.694021 388.236664 
L 435.22061 383.944458 
L 436.747199 388.2534 
L 438.273787 387.409107 
L 439.800376 385.701493 
L 441.326965 385.163867 
L 442.853554 383.209431 
L 444.380142 381.470579 
L 445.906731 382.364762 
L 447.43332 384.169626 
L 450.486498 390.368145 
L 452.013086 386.178865 
L 453.539675 384.740666 
L 455.066264 382.814947 
L 456.592853 385.228108 
L 458.119441 384.978208 
L 459.64603 388.344909 
L 461.172619 385.992797 
L 462.699208 384.529344 
L 464.225797 383.269006 
L 465.752385 381.219721 
L 467.278974 380.808479 
L 468.805563 378.770631 
L 470.332152 375.885523 
L 471.85874 376.589515 
L 473.385329 374.837344 
L 474.911918 375.419129 
L 476.438507 375.31913 
L 477.965095 376.835574 
L 479.491684 376.779502 
L 481.018273 377.058691 
L 482.544862 375.457083 
L 484.071451 376.461048 
L 485.598039 375.583498 
L 487.124628 372.448615 
L 488.651217 371.615153 
L 490.177806 371.867029 
L 491.704394 375.597253 
L 493.230983 376.985679 
L 494.757572 376.279706 
L 496.284161 374.97299 
L 499.337338 376.064457 
L 500.863927 376.861837 
L 502.390516 376.218586 
L 503.917105 376.418022 
L 505.443693 376.359336 
L 506.970282 373.897738 
L 508.496871 374.241913 
L 510.02346 371.806051 
L 511.550048 371.552737 
L 513.076637 373.448392 
L 514.603226 373.58114 
L 516.129815 376.556351 
L 517.656404 376.411386 
L 519.182992 375.20432 
L 520.709581 375.488402 
L 522.23617 376.832012 
L 523.762759 379.019036 
L 525.289347 378.87727 
L 526.815936 378.240153 
L 528.342525 380.678059 
L 529.869114 381.281428 
L 531.395702 381.339892 
L 532.922291 380.959453 
L 534.44888 383.333017 
L 535.975469 383.315904 
L 537.502058 383.646541 
L 539.028646 384.513938 
L 540.555235 386.373057 
L 542.081824 387.611168 
L 543.608413 385.536002 
L 545.135001 386.25882 
L 546.66159 384.71749 
L 548.188179 383.919429 
L 549.714768 382.033522 
L 551.241357 382.060616 
L 552.767945 383.282052 
L 554.294534 380.4802 
L 555.821123 379.80021 
L 557.347712 378.80435 
L 558.8743 378.523374 
L 560.400889 379.760841 
L 561.927478 377.935127 
L 563.454067 377.548401 
L 564.980655 376.331002 
L 566.507244 377.542547 
L 568.033833 378.164506 
L 569.560422 375.517705 
L 571.087011 375.322963 
L 572.613599 374.072913 
L 574.140188 373.242584 
L 575.666777 371.370848 
L 577.193366 371.444449 
L 578.719954 374.314592 
L 580.246543 371.519148 
L 581.773132 370.940625 
L 583.299721 370.231387 
L 584.826309 369.02524 
L 586.352898 369.088467 
L 587.879487 367.224262 
L 589.406076 364.89827 
L 590.932665 365.660872 
L 592.459253 368.990425 
L 593.985842 368.067344 
L 595.512431 368.639046 
L 597.03902 367.441231 
L 598.565608 367.938355 
L 600.092197 370.016329 
L 601.618786 370.416928 
L 603.145375 370.251517 
L 604.671964 371.09692 
L 606.198552 371.135954 
L 607.725141 369.289973 
L 609.25173 370.364432 
L 610.778319 369.711248 
L 612.304907 368.557309 
L 613.831496 366.366976 
L 615.358085 365.56019 
L 616.884674 366.540993 
L 618.411262 368.264496 
L 619.937851 367.560503 
L 621.46444 367.970545 
L 622.991029 366.152149 
L 624.517618 368.247041 
L 626.044206 368.867954 
L 627.570795 368.309094 
L 629.097384 366.223095 
L 630.623973 367.878403 
L 632.150561 365.856528 
L 633.67715 366.25993 
L 635.203739 368.113933 
L 636.730328 367.896095 
L 639.783505 368.319888 
L 641.310094 369.653806 
L 642.836683 370.145237 
L 645.88986 366.818926 
L 647.416449 365.560787 
L 648.943038 365.796701 
L 650.469627 364.27194 
L 651.996215 364.228871 
L 653.522804 363.709865 
L 655.049393 362.758281 
L 656.575982 362.127678 
L 658.102571 362.28074 
L 659.629159 362.143066 
L 661.155748 363.0716 
L 662.682337 362.521753 
L 664.208926 361.522252 
L 665.735514 361.37524 
L 667.262103 363.711332 
L 668.788692 364.672948 
L 670.315281 366.215104 
L 671.841869 368.362545 
L 673.368458 366.535691 
L 674.895047 365.247187 
L 676.421636 363.781462 
L 679.474813 364.306311 
L 681.001402 363.693603 
L 682.527991 364.466823 
L 684.05458 363.334081 
L 685.581168 364.119612 
L 687.107757 365.105895 
L 688.634346 363.890663 
L 690.160935 365.278742 
L 691.687524 366.139433 
L 693.214112 365.720777 
L 694.740701 362.991417 
L 696.26729 362.753082 
L 697.793879 364.631629 
L 699.320467 366.038555 
L 700.847056 367.113436 
L 702.373645 366.263523 
L 703.900234 366.621993 
L 705.426822 365.272769 
L 706.953411 365.049456 
L 708.48 365.186394 
L 710.006589 364.890968 
L 711.533178 364.915313 
L 714.586355 366.573888 
L 716.112944 368.029904 
L 717.639533 368.867096 
L 719.166121 368.92364 
L 720.69271 368.635602 
L 722.219299 368.927318 
L 723.745888 368.414871 
L 725.272476 368.915737 
L 726.799065 368.506331 
L 728.325654 367.79392 
L 729.852243 366.633128 
L 731.378832 366.947398 
L 734.432009 366.873062 
L 737.485187 365.885886 
L 739.011775 366.518288 
L 740.538364 367.473324 
L 742.064953 367.689944 
L 743.591542 367.230593 
L 745.118131 367.119762 
L 746.644719 368.053877 
L 748.171308 367.94859 
L 749.697897 368.799345 
L 751.224486 369.32253 
L 752.751074 368.35776 
L 754.277663 368.291578 
L 755.804252 367.524537 
L 757.330841 367.28534 
L 758.857429 367.621559 
L 760.384018 366.893661 
L 761.910607 367.08199 
L 763.437196 367.537066 
L 764.963785 367.533517 
L 766.490373 365.950706 
L 768.016962 363.461452 
L 769.543551 362.039542 
L 772.596728 362.818175 
L 774.123317 360.297947 
L 775.649906 358.438911 
L 777.176495 357.057882 
L 778.703083 356.219353 
L 780.229672 355.906813 
L 781.756261 355.062592 
L 783.28285 355.086479 
L 784.809439 353.925284 
L 787.862616 355.955598 
L 789.389205 356.033936 
L 790.915794 356.451598 
L 792.442382 356.524642 
L 793.968971 356.028825 
L 795.49556 355.852334 
L 797.022149 354.176611 
L 798.548738 353.298222 
L 800.075326 353.133978 
L 801.601915 354.635443 
L 804.655093 354.560959 
L 806.181681 354.844813 
L 807.70827 354.695882 
L 809.234859 354.214673 
L 810.761448 355.726652 
L 813.814625 354.266225 
L 815.341214 354.224852 
L 816.867803 354.452946 
L 818.394392 355.051843 
L 819.92098 353.948773 
L 822.974158 355.8182 
L 824.500747 357.23583 
L 826.027335 356.162995 
L 827.553924 356.288058 
L 829.080513 355.110668 
L 830.607102 354.383916 
L 832.133691 353.339645 
L 833.660279 353.523776 
L 835.186868 352.351752 
L 836.713457 352.003361 
L 838.240046 352.339428 
L 839.766634 350.233163 
L 841.293223 347.862707 
L 842.819812 347.640536 
L 847.399578 347.301011 
L 848.926167 346.940749 
L 850.452756 345.476287 
L 851.979345 345.59005 
L 853.505933 346.770329 
L 855.032522 346.859593 
L 856.559111 345.716259 
L 858.0857 345.96351 
L 859.612288 345.42598 
L 861.138877 343.945202 
L 862.665466 344.064938 
L 864.192055 344.825967 
L 865.718643 345.317047 
L 867.245232 344.59809 
L 870.29841 342.601864 
L 871.824999 342.632043 
L 873.351587 343.089402 
L 874.878176 342.843119 
L 876.404765 343.141623 
L 877.931354 343.786748 
L 879.457942 342.038148 
L 880.984531 342.91511 
L 882.51112 342.524663 
L 884.037709 342.752379 
L 885.564298 342.082058 
L 887.090886 340.983167 
L 888.617475 340.912237 
L 890.144064 341.613709 
L 893.197241 342.528713 
L 894.72383 341.818444 
L 896.250419 340.943345 
L 897.777008 341.615048 
L 899.303596 342.050014 
L 900.830185 341.239152 
L 902.356774 340.665774 
L 905.409952 338.705946 
L 906.93654 340.016154 
L 908.463129 340.287848 
L 909.989718 340.271851 
L 911.516307 339.799052 
L 913.042895 339.950778 
L 914.569484 342.117439 
L 916.096073 341.730768 
L 917.622662 341.469219 
L 919.14925 340.789823 
L 920.675839 340.955673 
L 922.202428 341.289234 
L 923.729017 339.755684 
L 925.255606 339.203645 
L 926.782194 338.439419 
L 928.308783 338.776709 
L 929.835372 338.468022 
L 931.361961 338.389995 
L 932.888549 336.710852 
L 934.415138 336.489906 
L 935.941727 336.094011 
L 937.468316 334.95917 
L 938.994905 335.721048 
L 940.521493 335.689552 
L 942.048082 334.966114 
L 945.10126 335.391987 
L 946.627848 335.146348 
L 948.154437 334.389123 
L 949.681026 333.471501 
L 951.207615 332.948577 
L 954.260792 333.992565 
L 955.787381 333.980556 
L 957.31397 333.733744 
L 958.840559 334.478971 
L 960.367147 334.329141 
L 961.893736 335.019593 
L 963.420325 334.966113 
L 964.946914 334.278413 
L 968.000091 334.016817 
L 969.52668 334.598681 
L 971.053269 333.984426 
L 972.579858 333.523739 
L 974.106446 333.453003 
L 975.633035 332.669968 
L 977.159624 333.122997 
L 978.686213 332.103485 
L 980.212801 333.130687 
L 981.73939 332.183574 
L 983.265979 332.046337 
L 984.792568 331.422906 
L 986.319156 331.010149 
L 987.845745 331.028995 
L 989.372334 331.907134 
L 990.898923 332.46475 
L 992.425512 332.527721 
L 995.478689 330.314907 
L 1000.058455 329.438635 
L 1003.111633 328.072452 
L 1004.638222 328.478469 
L 1007.691399 328.217618 
L 1009.217988 327.725803 
L 1010.744577 328.236197 
L 1012.271166 327.773082 
L 1013.797754 326.899407 
L 1015.324343 327.657341 
L 1016.850932 328.695766 
L 1019.904109 328.604015 
L 1021.430698 328.928462 
L 1022.957287 329.735128 
L 1024.483876 329.991191 
L 1026.010465 329.961063 
L 1027.537053 330.106425 
L 1029.063642 329.893491 
L 1030.590231 330.324315 
L 1032.11682 329.447897 
L 1033.643408 329.242749 
L 1035.169997 329.963205 
L 1036.696586 330.925371 
L 1038.223175 330.890065 
L 1039.749763 331.238424 
L 1041.276352 330.873139 
L 1042.802941 329.724492 
L 1044.32953 330.041347 
L 1045.856119 328.881237 
L 1047.382707 329.183431 
L 1048.909296 330.02256 
L 1050.435885 330.010269 
L 1051.962474 329.882742 
L 1053.489062 330.252756 
L 1055.015651 330.355102 
L 1056.54224 331.122765 
L 1058.068829 330.857203 
L 1059.595417 329.64712 
L 1061.122006 329.925887 
L 1062.648595 329.48943 
L 1064.175184 329.1725 
L 1065.701773 328.998986 
L 1067.228361 328.465523 
L 1068.75495 328.902463 
L 1070.281539 327.406217 
L 1071.808128 326.327013 
L 1073.334716 326.38213 
L 1074.861305 325.996407 
L 1076.387894 326.003646 
L 1077.914483 326.79956 
L 1079.441072 326.644168 
L 1080.96766 327.233435 
L 1082.494249 326.996887 
L 1084.020838 327.169164 
L 1085.547427 327.227784 
L 1087.074015 326.748928 
L 1088.600604 327.402589 
L 1090.127193 327.792389 
L 1093.18037 328.324199 
L 1094.706959 328.053497 
L 1096.233548 328.318433 
L 1099.286726 327.67072 
L 1100.813314 327.620425 
L 1103.866492 327.260912 
L 1105.393081 327.524604 
L 1106.919669 327.059564 
L 1108.446258 325.398977 
L 1111.499436 325.468092 
L 1113.026025 325.206848 
L 1114.552613 325.227987 
L 1116.079202 325.641141 
L 1117.605791 326.589248 
L 1122.185557 325.831582 
L 1123.712146 326.505955 
L 1125.238735 326.553085 
L 1126.765323 326.45957 
L 1128.291912 325.419377 
L 1129.818501 325.283934 
L 1131.34509 324.572073 
L 1132.871679 324.230609 
L 1134.398267 323.302604 
L 1135.924856 323.490053 
L 1137.451445 323.890358 
L 1140.504622 323.556423 
L 1145.084389 323.910368 
L 1148.137566 322.598172 
L 1149.664155 322.17739 
L 1151.190744 321.986536 
L 1152.717333 322.500961 
L 1154.243921 322.877718 
L 1155.77051 322.599364 
L 1157.297099 321.368926 
L 1158.823688 321.718026 
L 1160.350276 320.968971 
L 1163.403454 320.578176 
L 1164.930043 320.01657 
L 1166.456632 320.253446 
L 1167.98322 321.23592 
L 1169.509809 320.831083 
L 1171.036398 320.187697 
L 1172.562987 320.534102 
L 1174.089575 320.200731 
L 1175.616164 320.519273 
L 1177.142753 320.255678 
L 1178.669342 320.59174 
L 1180.19593 320.201862 
L 1181.722519 320.146496 
L 1183.249108 319.092313 
L 1184.775697 318.522987 
L 1186.302286 318.072781 
L 1187.828874 318.142138 
L 1189.355463 317.577699 
L 1190.882052 316.87922 
L 1192.408641 316.973005 
L 1193.935229 317.246028 
L 1195.461818 318.442889 
L 1195.461818 318.442889 
" style="fill:none;stroke:#ff0000;stroke-linecap:square;stroke-width:1.5;"/>
   </g>
   <g id="line2d_15">
    <path clip-path="url(#p753a0ff08a)" d="M 221.498182 405.403407 
L 223.024771 510.143421 
L 224.551359 412.218847 
L 226.077948 437.330427 
L 227.604537 391.83897 
L 229.131126 470.293373 
L 230.657714 235.825247 
L 232.184303 394.63077 
L 233.710892 241.98821 
L 235.237481 514.269594 
L 236.76407 294.919708 
L 238.290658 254.286002 
L 239.817247 382.715914 
L 241.343836 398.499116 
L 242.870425 409.650925 
L 244.397013 301.018877 
L 245.923602 301.286709 
L 247.450191 402.222771 
L 248.97678 325.011667 
L 250.503368 313.400558 
L 252.029957 282.829375 
L 253.556546 405.650886 
L 255.083135 398.279258 
L 256.609724 335.964825 
L 258.136312 525.865309 
L 259.662901 350.693031 
L 261.18949 394.311886 
L 262.716079 525.339394 
L 264.242667 512.454543 
L 265.769256 461.657494 
L 267.295845 301.073008 
L 268.822434 345.47569 
L 270.349023 494.302069 
L 271.875611 363.018017 
L 273.4022 467.719977 
L 274.928789 244.264613 
L 276.455378 502.195423 
L 277.981966 494.369711 
L 279.508555 353.565301 
L 281.035144 433.786182 
L 282.561733 301.316554 
L 287.141499 551.200938 
L 288.668088 296.733134 
L 290.194677 460.930448 
L 291.721265 349.566118 
L 293.247854 401.636481 
L 294.774443 486.523646 
L 296.301032 520.318993 
L 297.82762 244.922735 
L 299.354209 374.993076 
L 300.880798 238.974414 
L 302.407387 533.058127 
L 303.933975 338.187182 
L 305.460564 461.717611 
L 306.987153 441.411191 
L 308.513742 474.521223 
L 310.040331 485.680129 
L 311.566919 515.888388 
L 313.093508 360.42196 
L 314.620097 466.161471 
L 316.146686 447.539264 
L 317.673274 430.838831 
L 319.199863 445.031458 
L 320.726452 237.596343 
L 322.253041 498.11312 
L 323.77963 427.967416 
L 325.306218 431.900753 
L 326.832807 345.743437 
L 328.359396 444.832209 
L 329.885985 328.337507 
L 331.412573 493.882875 
L 332.939162 376.130764 
L 334.465751 316.646271 
L 335.99234 400.202484 
L 337.518928 469.896841 
L 339.045517 378.6136 
L 340.572106 397.714433 
L 342.098695 477.472936 
L 343.625284 457.43392 
L 345.151872 306.572889 
L 346.678461 477.410937 
L 348.20505 420.791189 
L 349.731639 209.867414 
L 351.258227 392.397809 
L 352.784816 369.578025 
L 354.311405 476.355514 
L 355.837994 385.99207 
L 357.364583 306.870224 
L 358.891171 477.167306 
L 360.41776 408.375985 
L 361.944349 432.286082 
L 363.470938 417.026914 
L 364.997526 502.769056 
L 366.524115 335.997064 
L 369.577293 349.7451 
L 371.103881 513.757531 
L 372.63047 322.278957 
L 374.157059 337.544966 
L 375.683648 447.431259 
L 377.210237 390.875048 
L 378.736825 415.12652 
L 380.263414 378.264614 
L 381.790003 362.973293 
L 383.316592 423.251619 
L 384.84318 525.256872 
L 386.369769 301.314672 
L 387.896358 477.381007 
L 389.422947 465.991895 
L 390.949535 444.911225 
L 392.476124 283.904124 
L 394.002713 405.296513 
L 395.529302 270.922813 
L 397.055891 432.360224 
L 398.582479 297.536716 
L 400.109068 299.473368 
L 401.635657 544.334787 
L 403.162246 306.0722 
L 404.688834 440.827895 
L 406.215423 287.330786 
L 407.742012 307.189707 
L 409.268601 421.504809 
L 410.79519 327.824589 
L 412.321778 190.275384 
L 413.848367 391.098925 
L 415.374956 317.762324 
L 416.901545 485.924958 
L 418.428133 310.887878 
L 419.954722 350.941366 
L 421.481311 491.379687 
L 423.0079 397.729911 
L 424.534488 279.493273 
L 426.061077 522.16004 
L 427.587666 380.810217 
L 429.114255 201.746761 
L 430.640844 437.396701 
L 432.167432 481.114752 
L 433.694021 389.569408 
L 435.22061 237.307133 
L 436.747199 544.22892 
L 438.273787 360.555961 
L 439.800376 328.187599 
L 441.326965 369.818407 
L 442.853554 316.737857 
L 444.380142 323.066035 
L 445.906731 420.584414 
L 447.43332 455.839754 
L 448.959909 502.296159 
L 450.486498 513.865194 
L 452.013086 230.668964 
L 453.539675 333.925212 
L 455.066264 313.579541 
L 456.592853 482.702505 
L 458.119441 379.291133 
L 459.64603 523.255142 
L 461.172619 296.754598 
L 462.699208 330.558154 
L 464.225797 337.513839 
L 465.752385 304.151453 
L 467.278974 369.695437 
L 468.805563 302.026754 
L 470.332152 264.960638 
L 471.85874 412.683021 
L 473.385329 309.828179 
L 474.911918 407.156545 
L 476.438507 378.587518 
L 477.965095 447.771266 
L 479.491684 381.275931 
L 481.018273 395.746054 
L 482.544862 313.936052 
L 484.071451 426.810487 
L 485.598039 344.663813 
L 487.124628 243.725272 
L 488.651217 343.636439 
L 490.177806 391.576525 
L 491.704394 548.699802 
L 493.230983 445.710189 
L 494.757572 351.372104 
L 496.284161 323.182335 
L 497.81075 405.62831 
L 499.337338 409.699326 
L 500.863927 420.08954 
L 502.390516 353.257619 
L 503.917105 392.377371 
L 505.443693 380.308844 
L 506.970282 265.832376 
L 508.496871 397.945921 
L 510.02346 264.476796 
L 513.076637 472.090551 
L 514.603226 387.594531 
L 516.129815 527.282888 
L 517.656404 375.861649 
L 519.182992 323.028751 
L 520.709581 396.300361 
L 522.23617 449.622233 
L 523.762759 493.254256 
L 525.289347 377.302231 
L 526.815936 351.97276 
L 528.342525 508.552163 
L 529.869114 416.460807 
L 531.395702 388.857926 
L 532.922291 366.139049 
L 534.44888 509.288274 
L 535.975469 386.196877 
L 537.502058 404.465395 
L 539.028646 433.11472 
L 540.555235 486.527666 
L 542.081824 455.016931 
L 543.608413 278.503012 
L 545.135001 427.350684 
L 546.66159 305.48899 
L 548.188179 344.528358 
L 549.714768 284.428244 
L 551.241357 387.690906 
L 552.767945 453.508793 
L 554.294534 231.897554 
L 555.821123 347.400371 
L 557.347712 329.154686 
L 558.8743 368.371754 
L 560.400889 453.66691 
L 561.927478 281.386741 
L 563.454067 361.571022 
L 564.980655 313.796406 
L 566.507244 451.992616 
L 568.033833 419.086024 
L 569.560422 230.559334 
L 571.087011 370.663464 
L 572.613599 308.916165 
L 574.140188 332.39732 
L 575.666777 270.384668 
L 577.193366 383.668377 
L 578.719954 549.642346 
L 580.246543 214.571324 
L 581.773132 344.750611 
L 583.299721 336.374355 
L 584.826309 305.758618 
L 586.352898 381.581817 
L 587.879487 264.378967 
L 589.406076 234.525509 
L 590.932665 421.878594 
L 592.459253 580.581756 
L 593.985842 320.564728 
L 595.512431 412.523109 
L 597.03902 302.727462 
L 600.092197 507.435853 
L 601.618786 403.448112 
L 603.145375 367.944607 
L 604.671964 432.035952 
L 606.198552 381.302098 
L 607.725141 260.562272 
L 609.25173 446.749193 
L 610.778319 336.136025 
L 612.304907 303.095945 
L 613.831496 234.645913 
L 615.358085 323.067403 
L 616.884674 439.528071 
L 618.411262 489.238826 
L 619.937851 330.387552 
L 621.46444 403.616148 
L 622.991029 255.657659 
L 624.517618 515.448586 
L 626.044206 418.437822 
L 627.570795 339.572179 
L 629.097384 235.920596 
L 630.623973 487.709138 
L 632.150561 238.944056 
L 633.67715 402.778274 
L 635.203739 502.532351 
L 636.730328 361.624212 
L 638.256917 391.001268 
L 639.783505 391.335459 
L 641.310094 469.436601 
L 642.836683 411.799654 
L 644.363272 266.135782 
L 645.88986 255.09711 
L 647.416449 286.964783 
L 648.943038 391.58482 
L 650.469627 266.732846 
L 651.996215 370.980039 
L 653.522804 336.888127 
L 655.049393 305.374143 
L 656.575982 327.63945 
L 658.102571 383.697281 
L 659.629159 362.731884 
L 661.155748 440.16507 
L 662.682337 333.031326 
L 664.208926 299.595911 
L 665.735514 361.361938 
L 667.262103 544.334958 
L 668.788692 444.652457 
L 671.841869 534.992556 
L 673.368458 239.823233 
L 674.895047 278.583139 
L 676.421636 264.110964 
L 677.948225 390.469537 
L 679.474813 396.24375 
L 681.001402 327.194003 
L 682.527991 432.282747 
L 684.05458 287.191397 
L 685.581168 433.353135 
L 687.107757 449.472838 
L 688.634346 280.3326 
L 690.160935 480.909774 
L 691.687524 441.122664 
L 693.214112 342.127531 
L 694.740701 161.047038 
L 696.26729 354.070693 
L 697.793879 520.437004 
L 699.320467 484.827461 
L 700.847056 459.744272 
L 702.373645 307.766846 
L 703.900234 403.30171 
L 705.426822 267.102184 
L 706.953411 356.186157 
L 708.48 384.9505 
L 710.006589 350.175838 
L 711.533178 375.779555 
L 713.059766 438.997708 
L 714.586355 443.94106 
L 716.112944 493.715267 
L 717.639533 444.285342 
L 719.166121 380.870249 
L 720.69271 352.514667 
L 722.219299 400.166226 
L 723.745888 333.749907 
L 725.272476 417.537352 
L 726.799065 342.058777 
L 728.325654 316.350305 
L 729.852243 278.109217 
L 731.378832 401.174616 
L 732.90542 374.003756 
L 734.432009 369.530821 
L 735.958598 335.743512 
L 737.485187 329.751579 
L 739.011775 428.186847 
L 740.538364 456.341897 
L 743.591542 335.75061 
L 745.118131 365.430046 
L 746.644719 455.797681 
L 748.171308 366.346935 
L 749.697897 449.492165 
L 751.224486 421.616834 
L 752.751074 291.765239 
L 754.277663 369.823196 
L 755.804252 308.038441 
L 757.330841 353.97124 
L 758.857429 404.704494 
L 760.384018 310.497675 
L 761.910607 391.434485 
L 763.437196 415.403075 
L 764.963785 374.72627 
L 766.490373 232.933138 
L 768.016962 149.948506 
L 769.543551 244.11864 
L 771.07014 406.352877 
L 772.596728 407.580441 
L 774.123317 142.684198 
L 775.649906 200.81294 
L 777.176495 242.916901 
L 780.229672 339.104071 
L 781.756261 289.782152 
L 783.28285 369.305318 
L 784.809439 259.435872 
L 786.336027 457.277599 
L 787.862616 465.0101 
L 789.389205 374.903456 
L 790.915794 406.746159 
L 792.442382 374.720284 
L 793.968971 321.192578 
L 795.49556 350.898267 
L 797.022149 208.800959 
L 798.548738 283.007416 
L 800.075326 350.183021 
L 801.601915 508.929283 
L 803.128504 359.938459 
L 804.655093 366.094581 
L 806.181681 393.815815 
L 807.70827 352.336026 
L 809.234859 320.086786 
L 810.761448 512.713909 
L 812.288036 297.302149 
L 813.814625 294.616814 
L 815.341214 362.208876 
L 816.867803 388.519116 
L 818.394392 425.066926 
L 819.92098 258.232679 
L 821.447569 461.73232 
L 822.974158 455.294854 
L 824.500747 507.527354 
L 826.027335 261.458125 
L 827.553924 379.746157 
L 829.080513 249.885584 
L 830.607102 293.924401 
L 832.133691 261.445383 
L 833.660279 383.985124 
L 835.186868 247.501005 
L 836.713457 329.648619 
L 838.240046 398.618153 
L 839.766634 151.063019 
L 841.293223 122.354518 
L 842.819812 339.319312 
L 844.346401 351.692186 
L 845.872989 340.713203 
L 847.399578 357.962641 
L 848.926167 324.466083 
L 850.452756 210.221958 
L 851.979345 372.136284 
L 853.505933 482.755952 
L 855.032522 370.410768 
L 856.559111 242.118449 
L 858.0857 386.249726 
L 859.612288 304.345914 
L 861.138877 204.960748 
L 862.665466 371.868196 
L 864.192055 439.50139 
L 865.718643 411.637261 
L 867.245232 283.99973 
L 868.771821 253.46831 
L 870.29841 253.160029 
L 871.824999 361.54588 
L 873.351587 407.164241 
L 874.878176 332.235697 
L 876.404765 390.435673 
L 877.931354 427.93321 
L 879.457942 170.574751 
L 880.984531 452.550686 
L 882.51112 316.129676 
L 884.037709 382.81742 
L 885.564298 285.380023 
L 887.090886 238.096861 
L 888.617475 349.35883 
L 890.144064 433.788577 
L 891.670653 403.20867 
L 893.197241 412.386114 
L 894.72383 279.756402 
L 896.250419 260.933834 
L 897.777008 431.251781 
L 899.303596 405.566312 
L 900.830185 267.525739 
L 902.356774 293.24721 
L 903.883363 243.860727 
L 905.409952 250.026341 
L 906.93654 502.240404 
L 908.463129 386.741521 
L 909.989718 354.58438 
L 911.516307 303.044208 
L 913.042895 373.18384 
L 914.569484 601.4412 
L 916.096073 313.561668 
L 917.622662 327.437549 
L 919.14925 279.584004 
L 920.675839 375.490686 
L 922.202428 394.801458 
L 923.729017 180.999256 
L 925.255606 292.431228 
L 926.782194 267.51009 
L 928.308783 393.90894 
L 929.835372 319.502464 
L 931.361961 345.936187 
L 932.888549 160.004613 
L 934.415138 328.147493 
L 935.941727 307.547672 
L 937.468316 220.893772 
L 938.994905 441.848086 
L 940.521493 349.452554 
L 942.048082 268.109377 
L 943.574671 379.8197 
L 945.10126 375.751506 
L 946.627848 323.821387 
L 948.154437 263.003377 
L 949.681026 243.302059 
L 951.207615 289.425812 
L 952.734203 412.347974 
L 954.260792 414.954293 
L 955.787381 350.418529 
L 957.31397 322.248001 
L 958.840559 441.130959 
L 960.367147 334.063404 
L 961.893736 435.201109 
L 963.420325 345.920196 
L 964.946914 269.107848 
L 966.473502 331.860287 
L 968.000091 340.033788 
L 969.52668 422.490538 
L 971.053269 277.107582 
L 972.579858 295.325732 
L 974.106446 342.645066 
L 975.633035 255.206398 
L 977.159624 406.397772 
L 978.686213 225.482408 
L 980.212801 477.032107 
L 981.73939 233.915104 
L 983.265979 333.353717 
L 984.792568 272.910005 
L 986.319156 298.538094 
L 987.845745 351.899302 
L 989.372334 459.072212 
L 990.898923 419.741238 
L 992.425512 358.265705 
L 993.9521 219.89838 
L 995.478689 202.424466 
L 997.005278 315.14181 
L 998.531867 319.113115 
L 1000.058455 301.635438 
L 1001.585044 263.981152 
L 1003.111633 259.258429 
L 1004.638222 399.073775 
L 1006.16481 334.167219 
L 1007.691399 327.95021 
L 1009.217988 284.693425 
L 1010.744577 412.495487 
L 1012.271166 288.110766 
L 1013.797754 234.972836 
L 1015.324343 444.112517 
L 1016.850932 480.877021 
L 1018.377521 343.186631 
L 1019.904109 340.239194 
L 1021.430698 389.597885 
L 1022.957287 452.435925 
L 1024.483876 381.504426 
L 1026.010465 344.422491 
L 1027.537053 367.271692 
L 1029.063642 320.541725 
L 1030.590231 404.627531 
L 1032.11682 233.513014 
L 1033.643408 320.948091 
L 1035.169997 442.573935 
L 1036.696586 475.024562 
L 1038.223175 344.07932 
L 1039.749763 394.784269 
L 1041.276352 300.483725 
L 1042.802941 196.16718 
L 1044.32953 390.051541 
L 1045.856119 193.56659 
L 1047.382707 387.676967 
L 1048.909296 459.669533 
L 1050.435885 346.367267 
L 1051.962474 330.882084 
L 1053.489062 397.585733 
L 1055.015651 361.859377 
L 1056.54224 451.591894 
L 1058.068829 312.727899 
L 1059.595417 184.761734 
L 1061.122006 385.390559 
L 1062.648595 288.565363 
L 1064.175184 304.421851 
L 1065.701773 323.656942 
L 1067.228361 274.412756 
L 1068.75495 406.470887 
L 1070.281539 142.370615 
L 1071.808128 198.239288 
L 1073.334716 352.986708 
L 1074.861305 292.411474 
L 1076.387894 346.170669 
L 1077.914483 454.915596 
L 1079.441072 324.155151 
L 1080.96766 427.025642 
L 1082.494249 313.060039 
L 1084.020838 369.582215 
L 1085.547427 353.903255 
L 1087.074015 279.093748 
L 1088.600604 436.609452 
L 1090.127193 400.275343 
L 1091.653782 377.072025 
L 1093.18037 389.599082 
L 1094.706959 308.335861 
L 1096.233548 383.377712 
L 1097.760137 304.963416 
L 1099.286726 296.130597 
L 1100.813314 338.7367 
L 1102.339903 319.831781 
L 1103.866492 320.720194 
L 1105.393081 382.934318 
L 1106.919669 279.582294 
L 1108.446258 109.0332 
L 1109.972847 346.874284 
L 1111.499436 351.61736 
L 1113.026025 306.967711 
L 1114.552613 347.161528 
L 1116.079202 403.372003 
L 1117.605791 480.52051 
L 1119.13238 312.461692 
L 1120.658968 296.758446 
L 1122.185557 315.821567 
L 1123.712146 441.81807 
L 1125.238735 351.587772 
L 1126.765323 331.222176 
L 1128.291912 193.726332 
L 1129.818501 324.352947 
L 1131.34509 240.311523 
L 1132.871679 293.699669 
L 1134.398267 207.762126 
L 1135.924856 370.067682 
L 1137.451445 401.365998 
L 1138.978034 319.326218 
L 1140.504622 317.488164 
L 1142.031211 364.987165 
L 1143.5578 356.324691 
L 1145.084389 359.14206 
L 1146.610977 238.964409 
L 1148.137566 252.363545 
L 1149.664155 279.689529 
L 1151.190744 313.430318 
L 1152.717333 418.026667 
L 1154.243921 397.942671 
L 1155.77051 300.625765 
L 1157.297099 158.326557 
L 1158.823688 393.292293 
L 1160.350276 229.24788 
L 1161.876865 304.53875 
L 1163.403454 318.391627 
L 1164.930043 256.174596 
L 1167.98322 488.342973 
L 1169.509809 279.798475 
L 1171.036398 243.401342 
L 1172.562987 392.609629 
L 1174.089575 289.873653 
L 1175.616164 388.486022 
L 1177.142753 300.277378 
L 1178.669342 391.268501 
L 1180.19593 280.923507 
L 1181.722519 331.613235 
L 1183.249108 178.962722 
L 1184.775697 252.250238 
L 1186.302286 270.009259 
L 1187.828874 349.311113 
L 1189.355463 251.996687 
L 1190.882052 230.898657 
L 1192.408641 352.318325 
L 1193.935229 380.008602 
L 1195.461818 522.858696 
L 1195.461818 522.858696 
" style="fill:none;stroke:#808080;stroke-linecap:square;stroke-width:1.5;"/>
   </g>
   <g id="patch_3">
    <path d="M 172.8 626.0616 
L 172.8 84.4128 
" style="fill:none;stroke:#000000;stroke-linecap:square;stroke-linejoin:miter;stroke-width:0.8;"/>
   </g>
   <g id="patch_4">
    <path d="M 1244.16 626.0616 
L 1244.16 84.4128 
" style="fill:none;stroke:#000000;stroke-linecap:square;stroke-linejoin:miter;stroke-width:0.8;"/>
   </g>
   <g id="patch_5">
    <path d="M 172.8 626.0616 
L 1244.16 626.0616 
" style="fill:none;stroke:#000000;stroke-linecap:square;stroke-linejoin:miter;stroke-width:0.8;"/>
   </g>
   <g id="patch_6">
    <path d="M 172.8 84.4128 
L 1244.16 84.4128 
" style="fill:none;stroke:#000000;stroke-linecap:square;stroke-linejoin:miter;stroke-width:0.8;"/>
   </g>
   <g id="text_16">
    <!-- 1D-Velocity - Q=1E-10 R=1 -->
    <g transform="translate(544.785 78.4128)scale(0.24 -0.24)">
     <defs>
      <path d="M 1259 4147 
L 1259 519 
L 2022 519 
Q 2988 519 3436 956 
Q 3884 1394 3884 2338 
Q 3884 3275 3436 3711 
Q 2988 4147 2022 4147 
L 1259 4147 
z
M 628 4666 
L 1925 4666 
Q 3281 4666 3915 4102 
Q 4550 3538 4550 2338 
Q 4550 1131 3912 565 
Q 3275 0 1925 0 
L 628 0 
L 628 4666 
z
" id="DejaVuSans-44" transform="scale(0.015625)"/>
      <path d="M 313 2009 
L 1997 2009 
L 1997 1497 
L 313 1497 
L 313 2009 
z
" id="DejaVuSans-2d" transform="scale(0.015625)"/>
      <path d="M 1831 0 
L 50 4666 
L 709 4666 
L 2188 738 
L 3669 4666 
L 4325 4666 
L 2547 0 
L 1831 0 
z
" id="DejaVuSans-56" transform="scale(0.015625)"/>
      <path d="M 603 4863 
L 1178 4863 
L 1178 0 
L 603 0 
L 603 4863 
z
" id="DejaVuSans-6c" transform="scale(0.015625)"/>
      <path d="M 3122 3366 
L 3122 2828 
Q 2878 2963 2633 3030 
Q 2388 3097 2138 3097 
Q 1578 3097 1268 2742 
Q 959 2388 959 1747 
Q 959 1106 1268 751 
Q 1578 397 2138 397 
Q 2388 397 2633 464 
Q 2878 531 3122 666 
L 3122 134 
Q 2881 22 2623 -34 
Q 2366 -91 2075 -91 
Q 1284 -91 818 406 
Q 353 903 353 1747 
Q 353 2603 823 3093 
Q 1294 3584 2113 3584 
Q 2378 3584 2631 3529 
Q 2884 3475 3122 3366 
z
" id="DejaVuSans-63" transform="scale(0.015625)"/>
      <path d="M 2059 -325 
Q 1816 -950 1584 -1140 
Q 1353 -1331 966 -1331 
L 506 -1331 
L 506 -850 
L 844 -850 
Q 1081 -850 1212 -737 
Q 1344 -625 1503 -206 
L 1606 56 
L 191 3500 
L 800 3500 
L 1894 763 
L 2988 3500 
L 3597 3500 
L 2059 -325 
z
" id="DejaVuSans-79" transform="scale(0.015625)"/>
      <path id="DejaVuSans-20" transform="scale(0.015625)"/>
      <path d="M 2522 4238 
Q 1834 4238 1429 3725 
Q 1025 3213 1025 2328 
Q 1025 1447 1429 934 
Q 1834 422 2522 422 
Q 3209 422 3611 934 
Q 4013 1447 4013 2328 
Q 4013 3213 3611 3725 
Q 3209 4238 2522 4238 
z
M 3406 84 
L 4238 -825 
L 3475 -825 
L 2784 -78 
Q 2681 -84 2626 -87 
Q 2572 -91 2522 -91 
Q 1538 -91 948 567 
Q 359 1225 359 2328 
Q 359 3434 948 4092 
Q 1538 4750 2522 4750 
Q 3503 4750 4090 4092 
Q 4678 3434 4678 2328 
Q 4678 1516 4351 937 
Q 4025 359 3406 84 
z
" id="DejaVuSans-51" transform="scale(0.015625)"/>
      <path d="M 678 2906 
L 4684 2906 
L 4684 2381 
L 678 2381 
L 678 2906 
z
M 678 1631 
L 4684 1631 
L 4684 1100 
L 678 1100 
L 678 1631 
z
" id="DejaVuSans-3d" transform="scale(0.015625)"/>
      <path d="M 628 4666 
L 3578 4666 
L 3578 4134 
L 1259 4134 
L 1259 2753 
L 3481 2753 
L 3481 2222 
L 1259 2222 
L 1259 531 
L 3634 531 
L 3634 0 
L 628 0 
L 628 4666 
z
" id="DejaVuSans-45" transform="scale(0.015625)"/>
      <path d="M 2841 2188 
Q 3044 2119 3236 1894 
Q 3428 1669 3622 1275 
L 4263 0 
L 3584 0 
L 2988 1197 
Q 2756 1666 2539 1819 
Q 2322 1972 1947 1972 
L 1259 1972 
L 1259 0 
L 628 0 
L 628 4666 
L 2053 4666 
Q 2853 4666 3247 4331 
Q 3641 3997 3641 3322 
Q 3641 2881 3436 2590 
Q 3231 2300 2841 2188 
z
M 1259 4147 
L 1259 2491 
L 2053 2491 
Q 2509 2491 2742 2702 
Q 2975 2913 2975 3322 
Q 2975 3731 2742 3939 
Q 2509 4147 2053 4147 
L 1259 4147 
z
" id="DejaVuSans-52" transform="scale(0.015625)"/>
     </defs>
     <use xlink:href="#DejaVuSans-31"/>
     <use x="63.623047" xlink:href="#DejaVuSans-44"/>
     <use x="140.625" xlink:href="#DejaVuSans-2d"/>
     <use x="170.833984" xlink:href="#DejaVuSans-56"/>
     <use x="231.492188" xlink:href="#DejaVuSans-65"/>
     <use x="293.015625" xlink:href="#DejaVuSans-6c"/>
     <use x="320.798828" xlink:href="#DejaVuSans-6f"/>
     <use x="381.980469" xlink:href="#DejaVuSans-63"/>
     <use x="436.960938" xlink:href="#DejaVuSans-69"/>
     <use x="464.744141" xlink:href="#DejaVuSans-74"/>
     <use x="503.953125" xlink:href="#DejaVuSans-79"/>
     <use x="563.132812" xlink:href="#DejaVuSans-20"/>
     <use x="594.919922" xlink:href="#DejaVuSans-2d"/>
     <use x="631.003906" xlink:href="#DejaVuSans-20"/>
     <use x="662.791016" xlink:href="#DejaVuSans-51"/>
     <use x="741.501953" xlink:href="#DejaVuSans-3d"/>
     <use x="825.291016" xlink:href="#DejaVuSans-31"/>
     <use x="888.914062" xlink:href="#DejaVuSans-45"/>
     <use x="952.097656" xlink:href="#DejaVuSans-2d"/>
     <use x="988.181641" xlink:href="#DejaVuSans-31"/>
     <use x="1051.804688" xlink:href="#DejaVuSans-30"/>
     <use x="1115.427734" xlink:href="#DejaVuSans-20"/>
     <use x="1147.214844" xlink:href="#DejaVuSans-52"/>
     <use x="1216.697266" xlink:href="#DejaVuSans-3d"/>
     <use x="1300.486328" xlink:href="#DejaVuSans-31"/>
    </g>
   </g>
  </g>
 </g>
 <defs>
  <clipPath id="p753a0ff08a">
   <rect height="541.6488" width="1071.36" x="172.8" y="84.4128"/>
  </clipPath>
 </defs>
</svg>
